<?xml version="1.0" standalone="no"?>
<!DOCTYPE svg PUBLIC "-//W3C//DTD SVG 1.1//EN" "http://www.w3.org/Graphics/SVG/1.1/DTD/svg11.dtd" >
<!--
2014-2-7: Created.
-->
<svg xmlns="http://www.w3.org/2000/svg">
<metadata>
Created by FontForge 20120731 at Fri Feb  7 20:00:45 2014
 By Jean-Francois Arseneau
Created by Jean-Francois Arseneau with FontForge 2.0 (http://fontforge.sf.net)
</metadata>
<defs>
<font id="gamefont" horiz-adv-x="512" >
  <font-face 
    font-family="gamefont"
    font-weight="500"
    font-stretch="normal"
    units-per-em="512"
    panose-1="2 0 6 9 0 0 0 0 0 0"
    ascent="448"
    descent="-64"
    bbox="-3391.35 -2635.32 18503.9 19669"
    underline-thickness="25.6"
    underline-position="-51.2"
    unicode-range="U+F100-F5CC"
  />
    <missing-glyph />
    <glyph glyph-name="uniF18F" unicode="&#xf18f;" 
d="M0 448h512v-512h-512v512zM373.469 422.5c-33.4736 0.0644531 -67.6123 -13.4443 -94.4375 -43.1562l37.2188 -145.156l-33.4375 -0.03125l35.3438 -132.094l-116.719 188.375l50.0312 -5.375l-48.9688 115.625c-82.0625 48.7441 -197.744 6.91602 -194 -110.844
c4.40137 -138.441 191.195 -184.601 247.406 -331.625c59.376 147.036 251.26 184.33 246.656 331.625c-2.56445 82.042 -64.5996 132.532 -129.094 132.656z" />
    <glyph glyph-name="uniF25D" unicode="&#xf25d;" 
d="M0 448h512v-512h-512v512zM86.2031 381.208c0 -171.439 35.3291 -341.132 166.346 -377.135c144.229 30.748 166.534 205.223 166.534 377.135c-110.96 -13.2441 -221.92 -16.1875 -332.88 0zM323.356 405.091l-70.6416 -166.177l-70.6406 166.177h141.282z
M314.022 -5.14844l-62.2383 -25.5957l-61.5752 22.7852l62.5039 147.034zM57.3203 268.347l159.81 -70.5947l-127.763 -54.2402l-32.0469 124.836v-0.000976562zM452.993 268.347l-36.2705 -125.791l-130.015 55.1963zM54.6875 424.613l-10.6943 1.56055v-10.8066
c0 -204.354 41.2178 -414.444 205.617 -459.617l2.19727 -0.603516l2.22754 0.475586c180.936 38.5742 206.363 255.672 206.363 459.745v10.5273l-10.4531 -1.24902c-132.01 -15.7744 -263.731 -19.2246 -395.258 -0.0322266zM62.7197 404.603
c130.578 -17.6357 253.576 -13.9736 378.968 0.258789c-1.21875 -208.511 -33.2705 -395.219 -189.318 -430.475c-144.996 41.7549 -187.852 231.11 -189.649 430.216zM57.3203 247.562l22.458 -87.4844l89.5371 38.0117zM300.339 405.091h-95.248l47.624 -112.034z
M295.054 -12.9912l-42.5234 100.032l-43.3525 -101.983l42.708 -15.8037zM448.07 246.29l-113.548 -48.2051l88.7803 -37.6914z" />
    <glyph glyph-name="uniF434" unicode="&#xf434;" 
d="M0 448h512v-512h-512v512zM101.62 63.3975c-28.207 0 -28.5352 -40.1895 0 -40.1895h308.692c27.5342 0 28.0273 40.1895 0 40.1895h-308.692zM47.2939 353.59l61.0371 -330.7h294.304l61.0371 330.7l-87.0215 -136.632l-52.8174 123.937l-68.0469 -116.076
l-67.167 116.681l-53.6982 -124.541zM85.3838 340.729c0 17.6934 -14.3369 32.0371 -32.0234 32.0371s-32.0244 -14.3457 -32.0244 -32.0371c0 -17.6924 14.3379 -32.0361 32.0244 -32.0361s32.0234 14.3438 32.0234 32.0361zM489.616 340.729
c0 17.6934 -14.3379 32.0371 -32.0244 32.0371s-32.0244 -14.3457 -32.0244 -32.0371c0 -17.6924 14.3379 -32.0361 32.0244 -32.0361s32.0244 14.3438 32.0244 32.0361zM359.286 353.97c0 19.0947 -15.4727 34.5742 -34.5605 34.5742
c-19.0869 0 -34.5596 -15.4814 -34.5596 -34.5742c0 -19.0938 15.4727 -34.5723 34.5596 -34.5723c19.0879 0 34.5605 15.4785 34.5605 34.5723zM222.838 353.97c0 19.0947 -15.4727 34.5742 -34.5605 34.5742c-19.0869 0 -34.5596 -15.4814 -34.5596 -34.5742
c0 -19.0938 15.4727 -34.5723 34.5596 -34.5723c19.0879 0 34.5605 15.4785 34.5605 34.5723zM338.329 205.087c0 18.8076 15.2393 34.0547 34.04 34.0547c18.7998 0 34.04 -15.249 34.04 -34.0547s-15.2402 -34.0518 -34.04 -34.0518
c-18.8008 0 -34.04 15.2461 -34.04 34.0518zM221.588 211.448c0 19.7988 16.043 35.8486 35.834 35.8486c19.79 0 35.833 -16.0518 35.833 -35.8486c0 -19.7959 -16.043 -35.8457 -35.833 -35.8457c-19.791 0 -35.834 16.0498 -35.834 35.8457zM104.053 205.087
c0 18.8076 15.2402 34.0547 34.04 34.0547c18.8008 0 34.04 -15.249 34.04 -34.0547s-15.2393 -34.0518 -34.04 -34.0518c-18.7998 0 -34.04 15.2461 -34.04 34.0518zM66.8701 81.7617v-18.6885h377.896v18.6885h-377.896z" />
    <glyph glyph-name="uniF23F" unicode="&#xf23f;" 
d="M0 448h512v-512h-512v512zM208.631 375.785c-65.4512 -3.01953 -133.122 -25.8945 -186.303 -66.5781v-352.794h69.251c28.1582 142.254 188.729 157.651 223.344 107.507l11.0967 93.4424c-88.0811 39.3096 -179.025 45.7402 -248.792 -0.579102
c48.0791 116.225 211.143 150.62 242.952 104.538l11.0967 93.4434c-36.5166 16.2959 -78.9141 23.0449 -122.646 21.0205zM167.768 416.388c137.351 -11.373 159.082 -99.2852 129.641 -155.541l153.576 -30.8037c19.8809 51.5293 25.4834 104.584 27.4551 158.028
c-149.19 -22.1621 -159.232 66.6123 -310.672 28.3164zM485.041 315.282c3.69434 -26.5146 -14.8066 -51.0049 -41.3213 -54.6992c-26.5156 -3.69434 -51.0059 14.8066 -54.7002 41.3213c-3.69336 26.5156 14.8066 51.0059 41.3223 54.7002
c26.5146 3.69434 51.0049 -14.8066 54.6992 -41.3223zM344.968 364.167c1.20215 -8.625 -4.81738 -16.5928 -13.4424 -17.7939c-8.62598 -1.20215 -16.5928 4.81641 -17.7949 13.4424c-1.20117 8.625 4.81738 16.5928 13.4424 17.7949
c8.62598 1.20117 16.5928 -4.81738 17.7949 -13.4434zM230.713 245.662c113.263 -78.5254 96.2119 -151.519 42.5869 -185.517l117.598 -103.467c42.9824 34.6855 74.3623 77.8311 102.792 123.129c-140.283 55.4043 -112.678 123.299 -262.977 165.854zM463.012 13.4697
c-10.0586 -24.8096 -38.3252 -36.7676 -63.1357 -26.709c-24.8096 10.0576 -36.7676 38.3252 -26.709 63.1348c10.0576 24.8105 38.3252 36.7686 63.1348 26.71c24.8105 -10.0586 36.7686 -38.3252 26.71 -63.1357zM366.148 125.843
c-3.27246 -8.07031 -12.4688 -11.9609 -20.5391 -8.68848c-8.07129 3.27148 -11.9609 12.4678 -8.68945 20.5381c3.27246 8.07129 12.4688 11.9619 20.5391 8.68945c8.07129 -3.27148 11.9609 -12.4678 8.68945 -20.5391zM404.305 -32.2314
c17.415 9.92578 23.4111 23.5791 23.9961 41.4199c-8.16211 -11.3574 -19.709 -18.2666 -37.4766 -24.8809zM475.259 56.0518c-5.08105 -19.3916 -16.7168 -28.7168 -33.7998 -33.8994c8.85645 10.8223 12.5439 23.7666 14.334 42.6377zM457.085 246.18
c10.123 17.3037 8.48828 32.126 0.0742188 47.8691c-1.38867 -13.915 -7.93359 -25.6748 -20.0137 -40.2852zM474.394 358.111c5.29688 -19.333 -0.117188 -33.2266 -12.3213 -46.2559c2.26172 13.8018 -1.01855 26.8535 -8.90332 44.0918z" />
    <glyph glyph-name="uniF3FD" unicode="&#xf3fd;" 
d="M0 448h512v-512h-512v512zM96.1123 267.999l15.2051 10.8652c-34.6855 48.542 -131.189 -8.69043 -109.126 -62.5234l17.293 7.08789c-13.4521 32.8203 56.3066 73.0098 76.6279 44.5703zM111.695 324.039l18.168 -4.37793
c9.51562 39.4912 94.2236 44.3975 101.967 0.563477l18.4043 3.25195c-11.8213 66.9102 -124.476 58.9316 -138.539 0.5625zM379.814 307.467l18.6426 -1.30957c5.45508 77.7031 -130.842 96.9502 -150.068 24.3457l18.0654 -4.78418
c13.5508 51.1699 117.066 34.5361 113.36 -18.252zM484.773 194.706l16.7441 -8.2998c30.6875 61.9062 -66.7695 121.56 -113.92 70.458l13.7344 -12.6738c33.4434 36.2461 103.271 -9.47949 83.4414 -49.4844zM319.198 356.626
c-23.1836 -0.1875 -45.6133 -10.5 -51.6387 -33.5654c-11.9229 -45.6465 -6.57227 -79.8506 -5.81055 -103.274c0.998047 -30.6455 -32.7061 -23.2803 -30.9814 0c2.42773 32.7793 9.4375 56.9326 -0.644531 103.92c-10.501 48.9258 -100.962 35.8652 -100.694 -13.5557
c0.282227 -52.6514 14.3096 -78.1631 27.7559 -103.274c13.5479 -25.3027 -13.8369 -40.5693 -25.8174 -11.6172c-9.23438 22.3145 -15.0088 41.9453 -32.9199 67.7725c-26.7588 38.5879 -93.0342 1.10254 -76.8125 -41.9541
c12.6621 -33.6074 39.7803 -62.6123 56.1553 -76.8115c39.1846 -33.9766 56.5762 -72.5928 66.4854 -121.349c6.93652 -34.1387 3.35742 -52.665 -7.10059 -72.3252h220.107c-13.9326 23.3213 -27.8369 41.2051 -16.1377 71.6797
c14.4961 37.7607 51.8789 75.3975 79.3926 98.1113c4.0127 3.31348 8.26953 6.3418 12.2637 9.68066c16.6553 13.9287 34.2666 34.8301 50.3467 65.1953c22.9141 43.2549 -51.3135 84.917 -81.9756 47.1182c-15.665 -19.3115 -20.8955 -36.5117 -32.9199 -52.2832
c-14.377 -18.8574 -30.8438 -6.79395 -21.9463 9.68262c14.0449 26.0088 29.0908 57.8877 31.6289 109.085c1.53613 31.0078 -28.9316 47.9102 -58.7363 47.7646zM197.177 341.383c-5.48535 30.5098 -18.9395 56.959 -34 84.6611
c-8.52051 -31.5127 -11.0586 -61.7334 -6.36133 -91.1816zM340.879 327.384c14.9561 27.0889 2.5 64.7461 -9.58203 98.29c-6.68848 -26.0459 -16.9746 -57.6484 -26.7061 -84.8906zM71.1582 265.78c-15.9434 22.7891 -28.7793 44.4043 -39.0273 69.2676
c-11.124 -42.9766 -7.22168 -73.876 14.1826 -95.2783zM473.923 225.921c9.39258 24.5557 14.0596 47.8359 13.9844 71.9912l-45.8711 -50.5889zM217.917 280.646c3.59961 -55.2832 -52.6738 -63.8105 -64.7871 -15.2744c-21.0752 84.4365 60.4404 82.0449 64.7871 15.2744z
M280.928 286.734c4.69043 73.3896 98.3301 56.2803 69.1758 -21.7949c-20.7852 -55.666 -73.0596 -38.9678 -69.1758 21.7949zM455.717 183.109c-35.9404 -41.9688 -80.7168 -30.2861 -44.5674 34.8467c20.9033 37.6631 77.2051 3.2666 44.5674 -34.8467zM92.8496 238.381
c30.0273 -54.3906 -16.3994 -80.4443 -39.6348 -40.999c-33.208 56.374 19.2793 77.874 39.6348 40.999zM314.942 68.457c-28.9648 -5.37891 -41.6523 10.6709 -61.8867 10.7549c-17.8213 0 -38.459 -16.5615 -59.8408 -12.8408
c-98.9541 17.2334 -51.5098 115.206 60.25 115.206c97.6455 0 155.228 -95.7158 61.4775 -113.12zM158.52 -13.3467l-28.9072 -17.3447l15.6924 47.0781l-23.125 -12.3887l18.9971 57.8154zM310.573 4.41113l47.9023 -35.1025l-12.8018 58.2295l15.2803 -16.9316
l0.826172 66.0732z" />
    <glyph glyph-name="uniF41B" unicode="&#xf41b;" 
d="M0 448h512v-512h-512v512zM230.939 38.9785l-18.6836 0.419922c-0.329102 -14.6855 -31.7842 -36.8389 -42.7471 -25.8848l-0.157227 0.15625l-0.164062 0.149414c-94.8037 86.1367 -113.667 143.171 -150.719 221.141v192.855h74.2578
c89.2725 -69.8799 208.401 -122.342 311.546 -78.8184c38.9785 -30.918 -1.44824 -71.3145 -101.699 -78.0107l1.24609 -18.6475c96.6348 6.45508 182.217 64.5908 106.703 115.114l-4.34863 2.90918l-4.75293 -2.18652
c-96.9375 -44.5986 -215.557 9.08984 -299.588 76.2822l-2.55859 2.04688h-99.4941v-215.777l0.913086 -1.91016c38.5771 -80.7549 57.9805 -139.838 155.927 -228.83c-13.5303 12.8916 -13.541 13.5137 -0.320312 0.305664
c29.1514 -29.125 74.0938 14.3516 74.6396 38.6855zM221.604 39.1885c-0.444336 -19.5127 -38.6514 -52.3311 -58.6973 -32.2842c-96.8174 87.9688 -114.869 144.49 -153.786 225.936v204.322h86.8721c84.7959 -67.8018 206.94 -124.576 309.333 -77.4814
c60.8262 -40.7012 -1.86621 -91.3271 -102.133 -98.0254zM215.147 41.7793c32.5742 -0.0566406 56.0586 11.9961 69.8486 36.9805c35.2246 5.52832 58.2939 21.4785 71.6113 45.7852l-72.7852 83.3516l-126.198 -93.3311zM281.077 199.21l-13.2148 -13.2148
l166.737 -166.737c44.8057 -44.8057 105.216 18.457 61.8164 61.834l-223.223 223.241l-13.2158 -13.2148l223.223 -223.24c26.3174 -26.3037 -7.73633 -63.0547 -35.3857 -35.4053zM274.477 192.604l166.727 -166.73c36.2314 -36.2314 83.457 13.7646 48.6104 48.6113
l-223.236 223.242zM169.22 107.52l-13.2148 -13.2148l62.9424 -62.9424c25.3389 -25.3701 68.4229 18.5781 75.4795 41.0732l-17.8311 5.59473c-6.95898 -22.1816 -39.5059 -38.3877 -44.4258 -33.4609zM162.61 100.908l62.9414 -62.9434
c15.1377 -15.1396 52.9482 14.9287 59.959 37.2607zM233.315 145.918l-13.2148 -13.2148l70.0986 -70.0977l4.3418 0.380859c28.5479 2.50391 52.1318 21.1211 61.4844 44.9717l-17.3984 6.82227c-6.21094 -15.8379 -20.5205 -28.7588 -41.5176 -32.6562zM226.701 139.318
l67.0264 -67.0283c24.9629 2.19043 45.5605 18.6104 53.5967 39.0703z" />
    <glyph glyph-name="uniF43F" unicode="&#xf43f;" 
d="M0 448h512v-512h-512v512zM411.55 186.239l-17.9717 -5.12598l67.4727 -236.564l17.9717 5.12598zM342.965 186.238l-17.9727 -5.125l67.4541 -236.563l17.9727 5.125zM463.589 134.19l16.3213 -41.1768l-63.7695 -19.1348l-16.3203 41.1768zM488.509 49.2959
l16.3203 -41.1768l-63.7695 -19.1348l-16.3203 41.1768zM279.416 186.238l-17.9727 -5.125l67.4541 -236.563l17.9727 5.125zM210.812 186.238l-17.9727 -5.125l67.4541 -236.563l17.9727 5.125zM148.906 186.239l-17.9717 -5.12598l67.4717 -236.564l17.9717 5.12598z
M80.3203 186.238l-17.9717 -5.125l67.4541 -236.563l17.9717 5.125zM497.595 -64.5312v18.6885h-487.363v-18.6885h487.363zM255.679 132.438l16.3203 -41.1768l-63.7686 -19.1348l-16.3213 41.1768zM282.934 30.0244l16.3213 -41.1768l-63.7695 -19.1348l-16.3203 41.1758z
M328.68 95.6455l16.3213 -41.1768l-63.7695 -19.1348l-16.3203 41.1758zM355.938 -2.68066l16.3203 -41.1768l-63.7695 -19.1348l-16.3203 41.1758zM299.871 195.203l16.3213 -41.1768l-63.7695 -19.1348l-16.3203 41.1768zM378.713 152.668l16.3213 -41.1768
l-63.7695 -19.1348l-16.3213 41.1768zM410.835 77.9141l16.3203 -41.1768l-63.7686 -19.1357l-16.3213 41.1768zM422.516 2.57422l16.3203 -41.1768l-63.7695 -19.1348l-16.3203 41.1768zM143.938 32.3604l16.3213 -41.1768l-63.7695 -19.1348l-16.3203 41.1768z
M112.4 124.05l16.3213 -41.1758l-63.7695 -19.1357l-16.3203 41.1768zM224.532 -2.68066l16.3203 -41.1768l-63.7686 -19.1348l-16.3213 41.1758zM203.508 71.4883l16.3203 -41.1758l-63.7686 -19.1357l-16.3213 41.1768zM177.228 143.907l16.3213 -41.1768
l-63.7695 -19.1357l-16.3213 41.1768zM305.015 428.544c54.3506 0 98.6309 -43.4658 99.2471 -97.6377l0.0986328 -8.63574h18.9912c38.5117 0 69.9727 -31.043 69.9727 -69.4434c0 -38.4697 -31.5605 -70.0635 -69.9727 -70.0635
c-18.6475 0 -35.2402 7.33887 -47.833 19.3965l-6.90332 6.61035l-6.45312 -7.05078c-9.3125 -10.1768 -22.7139 -16.5107 -37.6377 -16.5107c-18.4297 0 -34.2988 9.57617 -43.2783 24.2432l-8.03711 13.1279l-7.9375 -13.1885
c-14.7588 -24.5205 -40.793 -40.6631 -71.293 -40.6631c-26.3574 0 -49.8965 12.2598 -65.3379 31.3389l-8.24902 10.1934l-6.94141 -11.126c-9.05566 -14.5127 -25.1533 -24.3105 -43.3203 -24.3105c-28.1123 0 -51.0469 22.9512 -51.0469 51.1201
c0 25.8809 19.3916 47.2998 44.333 50.5986l10.7148 1.41699l-2.9502 10.3975c-1.89355 6.66992 -3.2959 12.7393 -3.2959 18.8389c0 38.4678 31.5596 70.0449 69.9551 70.0449c22.29 0 41.9854 -10.8867 54.8398 -27.5225l11.8086 -15.2822l4.6543 18.7432
c10.7354 43.2236 49.499 75.3643 95.8721 75.3643zM305.015 447.232c-50.373 0 -90.417 -31.1279 -108.933 -73.7686c-19.6514 16.4883 -35.8945 22.4658 -58.2422 22.4658c-48.7695 0 -88.6436 -39.9277 -88.6436 -88.7334c0 -4.99023 1.46094 -13.7598 1.54395 -14.1982
c-33 -11.2031 -50.3457 -36.0566 -50.3457 -67.0537c0 -38.4824 31.2695 -69.8086 69.7354 -69.8086c21.3428 0 39.0078 10.1592 51.9453 23.3467c22.7461 -21.0479 44.1064 -29.4424 71.9033 -29.4424c33.5967 0 63.792 18.7715 79.6377 38.6416
c14.9316 -15.3594 30.9365 -22.1611 50.9082 -22.1611c17.8809 0 38.0518 10.626 44.8193 16.2559c17.8369 -13.373 33.5781 -18.7012 54.0078 -18.7012c48.7881 0 88.6611 39.9473 88.6611 88.752c0 48.874 -39.9717 88.1318 -88.6611 88.1318
c0 0 -62.2295 106.273 -118.337 106.273zM305.007 437.894c-50.8086 0 -93.2012 -35.208 -104.935 -82.4541c-14.4482 18.6924 -36.8086 31.1484 -62.2275 31.1484c-43.5947 0 -79.3086 -35.7559 -79.3086 -79.4004c0 -7.50195 1.70801 -14.501 3.66113 -21.3779
c-29.5332 -3.9043 -52.4658 -29.2295 -52.4658 -59.8564c0 -33.3291 27.1055 -60.4668 60.3975 -60.4668c21.584 0 40.5879 11.626 51.2461 28.7061c17.1172 -21.165 43.2998 -34.8135 72.5996 -34.8135c33.9307 0 62.9688 18.0645 79.3086 45.1963
c10.6035 -17.3311 29.4717 -28.7051 51.2461 -28.7051c17.6006 0 33.5068 7.49219 44.5352 19.5439c14.1865 -13.6016 33.1162 -21.9863 54.2959 -21.9863c43.5947 0 79.3086 35.7549 79.3086 79.4004c0 43.6445 -35.7139 78.7891 -79.3086 78.7891
c-3.34961 0 -6.52051 -0.202148 -9.76172 -0.609375c-0.665039 59.3418 -49.1621 106.886 -108.592 106.886z" />
    <glyph glyph-name="uniF41F" unicode="&#xf41f;" 
d="M0 448h512v-512h-512v512zM256 342c-33.8096 0 -61.8867 -22.6895 -71.25 -53.4375c-10.2178 5.21582 -21.4922 8.4375 -33.75 8.4375c-41.4209 0 -75 -33.5791 -75 -75c0 -1.7832 0.34668 -3.40527 0.467773 -5.15723
c-35.1836 -12.2305 -60.4678 -45.4932 -60.4678 -84.8428c0 -49.7051 40.2949 -90 90 -90h300c49.7051 0 90 40.2949 90 90c0 39.3506 -25.2842 72.6133 -60.4678 84.8428c0.123047 1.75195 0.467773 3.37402 0.467773 5.15723c0 41.4209 -33.5791 75 -75 75
c-12.2578 0 -23.5322 -3.22168 -33.75 -8.4375c-9.36328 30.748 -37.4404 53.4375 -71.25 53.4375zM196 252l60 -60l60 60l30 -30l-60 -60l60 -60l-30 -30l-60 60l-60 -60l-30 30l60 60l-60 60z" />
    <glyph glyph-name="uniF288" unicode="&#xf288;" 
d="M0 448h512v-512h-512v512zM443.1 166.581c-3.19727 -101.782 -125.594 -144.942 -187.876 -57.4883c-58.1377 -75.1133 -191.302 -55.8477 -187.656 58.0801c3.41016 106.917 141.68 143.545 179.308 241.495l8.48633 22.0908l8.89551 -21.9287
c39.417 -97.166 182.392 -129.087 178.843 -242.249zM424.42 167.167c2.85547 91.0391 -117.274 122.616 -168.598 215.962c-53.0977 -100.174 -166.801 -129.537 -169.576 -216.554c-3.04004 -95.0293 115.258 -114.637 161.271 -35.3623l8.43164 14.5283l7.89746 -14.8271
c45.626 -85.665 157.744 -53.8486 160.574 36.2529zM256.849 81.7793l-60.0273 -119.244h120.056zM173.649 263.021c-95.5977 -4.23438 -130.465 -148.926 -20.627 -190.659c41.6494 -12.4111 83.4277 12.5029 99.793 56.3086
c4.53809 -9.33789 10.5801 -17.8281 18.3975 -25.6445c36.7793 -36.7803 95.3262 -37.377 131.015 -1.68164c56.6396 58.3662 22.0732 151.693 -61.3252 157.772c14.2412 -7.43359 22.0635 -20.7344 25.6445 -41.2529c-22.9219 22.0771 -45.3105 23.9834 -70.2461 3.34375
c25.2588 5.26953 45.0391 -23.2354 28.083 -43.5312c-17.2324 -20.6309 -51.3281 -0.451172 -52.5859 28.9629c-17.416 -10.7305 -14.4785 -45.5869 -41.8418 -41.7373c6.9375 31.9502 -1.64648 52.9375 -30.1055 64.6699
c4.43652 -7.45215 5.53125 -17.4717 3.34473 -26.7598c-4.06836 -17.2568 -19.6641 -28.2529 -35.123 -23.4189c-18.04 5.55273 -23.7451 24.7236 -18.3965 48.5049c3.51074 15.5977 12.6914 27.4609 23.9736 35.123zM248.187 219.421
c14.0518 38.0537 44.2324 41.7227 81.4434 30.4062c-45.5781 46.9033 -94 22.0918 -81.4434 -30.4062z" />
    <glyph glyph-name="uniF3CF" unicode="&#xf3cf;" 
d="M0 448h512v-512h-512v512zM355.152 164.829c26.3359 18.7881 -123.834 8.05469 -103.323 -12.082c20.5088 0 26.7617 -29.7021 17.7373 -56.251c-1.86914 -5.49609 -9.4043 -20.085 -9.40625 -26.8047c0 -9.10938 7.35059 -16.459 16.459 -16.459
c9.10938 0 16.459 7.34961 16.459 16.459c0 6.76172 -8.32715 21.1758 -9.875 26.8047c-5.8584 26.5215 -4.58398 39.7412 12.8428 41.6719c19.958 2.21094 28.9287 -77.3965 17.2559 -111.739c-3.10254 -9.125 -15.9883 -33.9883 -15.9883 -45.1436
c0 -15.1211 12.1553 -27.2764 27.2744 -27.2744s27.2734 12.1533 27.2754 27.2744c0 11.2236 -13.8906 35.8037 -16.459 45.1436c-11.2393 40.8906 -6.80273 133.22 19.752 138.402zM112.749 178.251c26.6572 -6.61914 35.6777 -83.7041 23.7568 -118.771
c-2.46875 -7.26074 -12.9082 -26.7695 -12.9082 -35.6465c0 -12.0312 9.73828 -21.9629 21.7705 -21.9629c12.0312 0 21.7695 9.93164 21.7695 21.9629c0 8.92969 -11.0576 28.2129 -13.1006 35.6465c-8.94238 32.5371 -10.4668 105.669 19.8516 101.03
c-20.3799 32.8457 -57.6973 33.29 -61.1416 17.7412h0.00195312zM456.683 213.642c-40.0928 -13.7393 -65.4531 -24.416 -102.343 -48.833c61.498 16.4795 42.6475 -16.1074 63.6885 -16.1074c17.6553 0 3.75293 40.8682 38.6543 64.9404zM439.731 84.3271
c0 12.0098 -9.73633 21.7461 -21.7461 21.7461c-12.0107 0 -21.7461 -9.73633 -21.7461 -21.7461s9.73535 -21.7461 21.7461 -21.7461c12.0098 0 21.7461 9.73633 21.7461 21.7461zM13.8467 301.577c-0.826172 -4.54688 -1.16797 -9.2207 -1.16797 -13.8896
c0 -74.6943 108.201 -135.034 241.783 -135.036c133.583 -0.00195312 241.784 60.3418 241.784 135.036c0 4.66895 -0.341797 9.34277 -1.16797 13.8896c-13.0771 -54.6865 -115.887 -96.4531 -240.616 -96.4531s-227.539 41.7666 -240.615 96.4531zM447.397 416.401
c-57.4482 6.00293 -98.6699 -18.6455 -127.745 -66.2373c83.8779 -29.1279 122.685 -2.36816 127.745 66.2373zM72.0283 416.401c5.06055 -68.6055 43.8672 -95.3652 127.746 -66.2373c-29.0762 47.5918 -70.2979 72.2402 -127.746 66.2373z" />
    <glyph glyph-name="uniF295" unicode="&#xf295;" 
d="M0 448h512v-512h-512v512zM465.181 -14.6328c26.0752 65.6367 38.0244 136.09 10.4854 202.332c-71.5244 -4.98242 -131.65 -35.7451 -180.468 -92.083c47.7197 -50.6045 103.6 -99.4375 169.982 -110.249zM339.518 104.873l-13.3896 -13.0371
c36.7393 -37.7324 87.543 -71.0693 149.856 -90.5361l5.57227 17.8389c-59.2646 18.5137 -107.45 50.21 -142.039 85.7344zM441.604 85.0791c-15.8018 -8.0625 -35.1465 -1.78906 -43.209 14.0127c-8.06348 15.8008 -1.79004 35.1465 14.0117 43.209
s35.1465 1.79004 43.21 -14.0117c8.0625 -15.8018 1.78906 -35.1475 -14.0127 -43.21zM104.263 187.127c54.9688 32.5547 80.4561 93.8105 56.8916 136.732s-87.2979 51.3359 -142.266 18.7803c27.1211 -33.8379 44.5127 -50.083 88.4512 -49.1172
c-23.6406 -40.4404 -16.7197 -66.458 -3.07715 -106.396zM154.718 327.558l8.47559 -16.6562c82.7549 42.1143 185.967 -63.2588 216.974 -159.237l17.7832 5.74512c-31.3369 97.002 -141.438 221.952 -243.232 170.148zM461.298 270.936
c-64.2773 -17.9561 -137.112 -59.1123 -184.013 -112.279c66.7627 11.9424 136.355 60.458 184.013 112.279zM190.417 396.021c-9.38184 -66.3965 -13.1387 -63.3799 16.9521 -124.944c15.9268 66.7676 11.5908 63.1094 -16.9521 124.944zM304.387 395.762
c-43.3623 -50.7334 -59.2402 -75.8682 -68.5498 -146.151c48.7773 47.125 57.8643 76.5645 68.5498 146.151zM406.24 352.876c-58.8281 -31.5205 -114.872 -84.0635 -149.07 -146.168c62.5625 26.1924 113.84 85.2129 149.07 146.168z" />
    <glyph glyph-name="uniF1AD" unicode="&#xf1ad;" 
d="M0 448h512v-512h-512v512zM107.816 128.875v-170.378h301.151v65.2246c0 162.861 -250.248 196.157 -301.151 105.153zM139.007 83.4404c0 33.4727 -13.3604 60.6045 -29.8438 60.6045s-29.8438 -27.1357 -29.8438 -60.6045s13.3604 -60.5996 29.8438 -60.5996
s29.8438 27.1309 29.8438 60.5996zM312.557 272.336c-3.65723 52.7881 -0.618164 114.796 22.1055 158.525c-77.6475 -21.2354 -137.868 -64.4551 -146.148 -146.04c-7.81738 -77.0264 132.111 -128.868 124.043 -12.4854zM397.463 18.1025h18.6885
c0 114.517 -55.5625 152.25 -174.343 168.964c-86.2451 12.1191 -165.636 -28.2168 -159.732 -93.9678l18.6133 1.6709c-4.09766 45.6504 55.3984 85.4707 138.519 73.791c115.192 -16.21 158.255 -46.2227 158.255 -150.458zM258.278 267.221l-17.1436 -7.44141
c17.1602 -39.5303 21.6387 -84.8877 5.2832 -143.515l18.002 -5.02148c17.2988 62.0088 12.7617 112.432 -6.1416 155.978zM442.493 6.57812c0 16.4834 -13.3604 29.8447 -29.8438 29.8447s-29.8438 -13.3633 -29.8438 -29.8447s13.3604 -29.8418 29.8438 -29.8418
s29.8438 13.3604 29.8438 29.8418zM386.509 68.1621l-10.1387 15.6992c-23.5918 -15.2344 -66.6074 -26.2822 -115.841 -26.2822c-81.2969 0 -135.492 29.6338 -135.492 52.5244h-18.6885c0 -45.4385 75.4922 -71.2129 154.181 -71.2129
c51.8008 0 97.7393 11.0352 125.979 29.2715zM205.926 239.887c-10.3574 63.1865 55.3701 117.358 14.6943 177.05c-1.15137 -52.2734 -67.8037 -123.656 -14.6943 -177.05z" />
    <glyph glyph-name="uniF1C7" unicode="&#xf1c7;" 
d="M0 448h512v-512h-512v512zM29.2441 283.881c-4.21973 -135.054 171.683 -169.246 226.111 -304.063c51.5264 134.807 222.742 177.125 226.776 304.063c4.30273 135.327 -163.338 161.303 -226.776 51.4717c-63.5508 119.891 -222.153 75.2256 -226.111 -51.4717z
M249.087 276.518l22.9199 4.26074c-13.9531 -113.137 95.1885 -146.269 158.367 -93.7031l-179.846 -198.669zM261.342 276.518l-1.44141 -288.111l-176.312 189.482c63.1787 -52.5654 168.786 -10.2471 154.833 102.89zM38.582 283.586
c3.6748 117.558 149.439 158.84 208.511 47.3828l7.9043 -14.916l8.44336 14.6182c59.4502 102.927 213.307 77.8018 209.351 -46.4961c-3.65625 -115.065 -150.366 -149.874 -217.68 -281.521c-63.1035 121.445 -220.267 161.191 -216.529 280.933zM19.9023 284.169
c-4.44141 -142.292 175.807 -181.569 226.781 -307.844l8.90137 -22.0498l8.49219 22.2109c48.5811 127.062 223.126 172.812 227.393 307.094c4.56348 143.373 -164.442 167.66 -235.75 69.5625c-75.3408 112.779 -231.776 60.2812 -235.817 -68.9736zM256.006 324.437
l92.4131 -115.142c-66.1533 16.6641 -126.679 12.6836 -184.828 -0.00195312zM256.006 269.466l-43.4824 -54.1777c27.3594 5.96875 55.8379 7.84375 86.9648 0.00195312zM243.905 224.769c9.72363 -84.8818 -63.7373 -142.396 -107.766 -111.778l116.285 -104.761v-6.01367
l3.00781 3.00684l3.50781 -3.00684v6.01367l112.798 106.775c-44.0283 -30.6191 -115 24.8818 -104.276 109.764h-23.5566z" />
    <glyph glyph-name="uniF1CE" unicode="&#xf1ce;" 
d="M0 448h512v-512h-512v512zM438.292 169.478l-13.2148 13.2148l-179.056 -179.056v-56.0127h18.6885v48.2715zM14.9141 417.704v-18.6885h191.046l63.3486 -63.3486l13.2148 13.2148l-68.8223 68.8223h-198.787zM275.92 310.074
c16.4199 0 29.7324 13.3125 29.7324 29.7334c0 16.4199 -13.3125 29.7324 -29.7324 29.7324c-16.4209 0 -29.7334 -13.3125 -29.7334 -29.7324c0 -16.4209 13.3125 -29.7334 29.7334 -29.7334zM15.5898 362.223v-18.6885h134.889l63.3477 -63.3486l13.2148 13.2148
l-68.8213 68.8223h-142.63zM220.438 254.593c16.4199 0 29.7324 13.3125 29.7324 29.7334c0 16.4199 -13.3125 29.7324 -29.7324 29.7324c-16.4209 0 -29.7334 -13.3125 -29.7334 -29.7324c0 -16.4209 13.3125 -29.7334 29.7334 -29.7334zM15.4619 306.741v-18.6885h79.5342
l63.3486 -63.3486l13.2148 13.2148l-68.8223 68.8223h-87.2754zM164.958 199.111c16.4209 0 29.7334 13.3125 29.7334 29.7334c0 16.4199 -13.3125 29.7324 -29.7334 29.7324c-16.4199 0 -29.7324 -13.3125 -29.7324 -29.7324c0 -16.4209 13.3125 -29.7334 29.7324 -29.7334
zM481.521 169.927l-148.111 148.112l-148.125 -148.125l148.111 -148.111zM333.409 291.609l121.682 -121.683l-121.695 -121.694l-121.682 121.682zM362.808 279.057l13.2119 -13.2168l56.3945 56.375v114.927h-18.6885v-107.184zM399.945 235.089l13.2158 -13.2129
l75.6475 75.666v136.387h-18.6885v-128.647zM446.741 20.0303c16.4199 0 29.7324 13.3125 29.7324 29.7324c0 16.4209 -13.3125 29.7334 -29.7324 29.7334c-16.4209 0 -29.7334 -13.3125 -29.7334 -29.7334c0 -16.4199 13.3125 -29.7324 29.7334 -29.7324zM391.262 -35.4512
c16.4209 0 29.7334 13.3125 29.7334 29.7324c0 16.4209 -13.3125 29.7334 -29.7334 29.7334c-16.4199 0 -29.7324 -13.3125 -29.7324 -29.7334c0 -16.4199 13.3125 -29.7324 29.7324 -29.7324zM388.249 5.73535l-13.2148 -13.2148l57.8174 -57.8184l13.2148 13.2148z
M453.659 53.04l-13.2148 -13.2148l57.8174 -57.8174l13.2148 13.2148zM19.1123 242.919l-13.2148 -13.2148l173.601 -173.6v-117.642h18.6885v125.383zM14.9873 157.015l-13.2139 -13.2158l112.479 -112.461v-92.875h18.6885v100.617zM17.4697 63.6992l-13.2139 -13.2148
l46.3936 -46.3945v-64.8057h18.6885v72.5469zM345.36 251.021l-13.2148 13.2148l-94.5752 -94.5752l95.0127 -95.0137l13.2148 13.2148l-81.7979 81.7988zM365.872 234.27l-13.2119 -13.2168l51.4814 -51.4658l-51.7754 -51.7754l13.2148 -13.2148l64.9922 64.9922z
M367.534 169.523c0 17.4482 -14.1436 31.5918 -31.5918 31.5918c-17.4492 0 -31.5928 -14.1455 -31.5928 -31.5918s14.1436 -31.5918 31.5928 -31.5918c17.4482 0 31.5918 14.1455 31.5918 31.5918zM19.1123 218.136l-13.2139 -13.2158l176.337 -176.318l13.2139 13.2148z
M14.9883 132.248l-13.2148 -13.2148l115.216 -115.216l13.2148 13.2148zM17.4697 38.9141l-13.2139 -13.2148l49.1299 -49.1299l13.2148 13.2148zM513.319 447.288h-512.641v-512.64h512.641v512.64zM19.3672 428.6h475.264v-475.263h-475.264v475.263z" />
    <glyph glyph-name="uniF4E8" unicode="&#xf4e8;" 
d="M0 448h512v-512h-512v512zM377.851 69.2656c9.56934 -74.5283 102.034 -37.6914 78.332 31.9668c-29.5205 86.7578 -74.4092 104.656 -137.572 118.759c34.2432 -46.8359 48.25 -65.1211 59.2402 -150.726zM106.852 53.2852
c43.541 80.3457 77.5068 124.699 117.706 169.856c-65.3984 -9.40723 -126.185 -48.4688 -188.467 -122.877c-50.0068 -59.748 32.8525 -116.926 70.7607 -46.9795zM310.462 11.7324h-0.00195312c-1.3291 43.3564 -17.04 91.3799 -35.29 139.664
c-27.5918 -59.0635 -36.8926 -87.6201 -45.7588 -139.869c-12.4297 -73.2461 83.3779 -75.6816 81.0508 0.205078zM85.9746 297.756h-0.00195312c63.7168 26.6299 102.662 15.4766 131.77 -20.6885c2.18066 51.7383 -69.0264 102.01 -140.955 87.7559
c-57.751 -11.4463 -46.2842 -90.2539 9.1875 -67.0674zM419.052 236.592c47.0918 -61.7822 110.84 18.999 53.6084 69.1143c-31.1709 27.2969 -82.0303 46.4727 -113.881 41.5332c-41.4639 -6.43262 -61.9863 -23.8086 -67.3594 -76.1279
c35.6768 42.4834 73.5381 36.4434 127.63 -34.5195h0.00195312zM62.4424 234.004c-37.9961 -6.12988 -23.4092 -56.0342 10.5605 -39.7061c35.4658 17.0459 53.5693 29.1416 81.8975 45.9551c-31.6475 0.429688 -56.9814 -0.523438 -92.4561 -6.24902h-0.00195312z
M246.667 406.926c-6.12988 37.9971 -56.0361 23.4072 -39.7061 -10.5596c17.0459 -35.4648 29.1377 -53.5703 45.9473 -81.9023c0.430664 31.6484 -0.521484 56.9834 -6.24902 92.4561zM424.165 378.625c44 -2.85352 38.6445 50.0312 -4.41992 46.8633
c-57.3926 -4.22168 -115.419 -43.9492 -128.766 -88.5762c23.1309 27.5645 75.9668 45.4229 133.186 41.7129zM152.762 28.7451c-20.7119 -39.5303 35.7627 -60.6611 44.2012 -17.7783c8.81348 44.7666 17.5254 90.1055 21.5938 128.088
c-27.5537 -39.626 -44.2188 -69.1309 -65.7969 -110.31h0.00195312z" />
    <glyph glyph-name="uniF140" unicode="&#xf140;" 
d="M0 448h512v-512h-512v512zM170.692 311.612l-33.0586 -32.501l212.651 -236.67l94.0488 -37.5293l-37.5264 94.0508zM429.941 154.261c91.7441 72.5879 72.4072 180.341 3.57715 277.448c17.4199 -49.9473 -19.0156 -99.707 -74.457 -51.3857
c25.7344 -56.2158 -28.7373 -91.2607 -66.0283 -58.5361c18.3447 -59.5645 -19.7822 -79.3818 -56.5312 -72.9346l31.3633 -53.1162c62.6143 39.2832 143.537 45.3066 162.076 -41.4756zM45.2246 434.389l-30.9521 -30.9512
c39.584 -19.999 73.1377 -48.4395 94.0254 -94.6113l-59.5693 -59.5703l43.2168 -42.6338c35.9932 62.3408 87.041 114.273 150.092 150.677l-42.6318 42.6338l-59.5703 -59.5693c-40.3633 16.6309 -71.1152 49.2812 -94.6104 94.0254zM296.922 16.9941
c-86.7842 18.7432 -80.7588 100.558 -41.4756 163.862l-53.1182 31.7051c6.44727 -37.1533 -13.3682 -75.7002 -72.9375 -57.1533c32.7266 -37.7031 -2.31641 -92.7725 -58.5332 -66.7559c48.3213 -56.0488 -1.44434 -92.8838 -51.3857 -75.2744
c97.1074 -69.5889 204.86 -89.1367 277.45 3.61621zM80.9531 211.235l15.8164 -9.95508c40.6963 64.6621 90.4932 114.885 153.079 153.119l-9.74316 15.9482c-65.0957 -39.7686 -117.101 -92.2969 -159.152 -159.112zM494.563 -44.3936l-55.5918 143.461
c-11.8496 -46.7305 -41.1367 -76.0215 -87.8662 -87.8721z" />
    <glyph glyph-name="uniF3ED" unicode="&#xf3ed;" 
d="M0 448h512v-512h-512v512zM281.985 -38.7354c97.1406 26.0293 66.6982 18.3936 162.091 43.4229c33.8311 8.8877 53.7705 43.75 44.7627 77.4287c-9.03906 33.7139 -43.7217 53.7803 -77.4463 44.7168c-95.3584 -25.624 -64.9307 -17.8789 -162.091 -43.4414
c-33.8193 -8.88379 -53.7676 -43.75 -44.7363 -77.4326c9.01562 -33.708 43.71 -53.7324 77.4199 -44.6943zM277.147 -20.6846c-23.7422 -6.36523 -48.1807 7.73828 -54.5312 31.4834c-6.37305 23.7695 7.73438 48.292 31.4404 54.5195
c97.209 25.5752 66.9717 17.8809 162.187 43.4668c23.7275 6.37695 48.1768 -7.75781 54.542 -31.4971c6.3584 -23.7734 -7.75684 -48.2988 -31.4521 -54.5234c-95.4717 -25.0498 -65.2129 -17.4639 -162.186 -43.4492zM372.078 -5.13086l75.3574 20.1309
c59.4463 15.9287 33.3291 117.153 -27.0557 100.975l-75.3574 -20.1309c-36.4785 -9.77441 -10.458 -111.025 27.0557 -100.975zM140.971 297.268c-59.0635 -59.0635 -40.3291 -40.9131 -98.5381 -98.5381c-21.2617 -21.0625 -21.1094 -55.4287 -0.0332031 -76.5039
c21.1104 -21.1104 55.3926 -21.1416 76.4971 0.00683594c57.9365 58.0283 39.2734 39.8027 98.5156 98.5166c21.2725 21.0723 21.1221 55.4268 0.0302734 76.5186c-21.0938 21.1152 -55.3574 21.1143 -76.4717 0zM154.186 284.053c13.8184 13.8184 36.2402 13.8164 50.042 0
c13.8389 -13.8389 13.8721 -36.3174 0.0292969 -50.0303c-59.2764 -58.7471 -40.7451 -40.6533 -98.5898 -98.5889c-13.79 -13.8203 -36.2314 -13.8145 -50.0527 0.00683594c-13.8193 13.8184 -13.8486 36.3223 -0.0332031 50.0078
c58.2666 57.6826 39.6602 39.6602 98.6045 98.6045zM99.1328 242.512l-53.707 -53.708c-36.1367 -36.1357 24.6729 -98.0889 61.3809 -61.3799l53.707 53.707c-21.0137 -21.0137 -79.0508 43.9512 -61.3809 61.3809zM362.141 372.577
c24.999 -93.3037 16.7549 -64.4297 41.8057 -156.033c6.17188 -22.541 -7.37109 -45.9023 -30.0537 -51.9854c-22.6494 -6.07324 -45.9717 7.37988 -52.0283 30.0352c-24.4717 91.6348 -16.3594 62.7344 -41.8057 156.033c-6.16016 22.5498 7.37402 45.9092 30.0527 51.9912
c22.6416 6.07129 45.9551 -7.39062 52.0293 -30.041zM380.191 377.416c-8.74512 32.6123 -42.3008 52 -74.9209 43.2529c-32.585 -8.73828 -52.1572 -42.3203 -43.2422 -74.96c25.4355 -93.2588 17.2695 -64.1582 41.7812 -155.942
c8.72656 -32.6436 42.3096 -52.0049 74.9238 -43.2588c32.5791 8.73633 52.1797 42.3174 43.2402 74.9658c-25.0293 91.5225 -16.7373 62.4688 -41.7822 155.942zM391.886 298.622c7.63281 -27.7285 -88.2305 -59.2842 -97.1416 -26.0273l22.7764 -85
c15.5654 -58.0918 112.466 -31.1592 97.1406 26.0293z" />
    <glyph glyph-name="uniF572" unicode="&#xf572;" 
d="M0 448h512v-512h-512v512zM495.819 92.9736c-38.791 161.188 -218.129 335.497 -307.897 333.03c38.6328 -74.6572 186.958 -157.519 307.897 -333.03zM459.278 3.78613c-38.792 161.188 -285.988 381.301 -375.757 378.834
c61.252 -98.2158 249.162 -212.741 375.757 -378.834zM371.253 -43.8213c-38.792 161.188 -265.253 347.585 -355.021 345.118c59.3662 -87.3242 194.498 -155.166 355.021 -345.118z" />
    <glyph glyph-name="uniF47F" unicode="&#xf47f;" 
d="M0 448h512v-512h-512v512zM496.54 189.974c0 131.777 -106.759 238.544 -238.457 238.544s-238.457 -106.767 -238.457 -238.544c0 -131.702 106.76 -238.466 238.457 -238.466s238.457 106.764 238.457 238.466zM477.853 189.974
c0 -121.383 -98.3906 -219.777 -219.77 -219.777s-219.769 98.3945 -219.769 219.777c0 121.463 98.3916 219.854 219.769 219.854s219.77 -98.3916 219.77 -219.854zM485.852 189.034c-141.115 -119.367 -306.338 -126.152 -455.614 0.000976562
c148.2 125.732 308.478 124.978 455.614 -0.000976562zM506.285 196.013c-155.317 138.089 -335.833 142.833 -496.478 0l-7.85449 -6.9834l7.85449 -6.9834c157.167 -139.716 343.342 -136.135 496.477 0l7.85547 6.9834zM500.068 189.033
c-152.182 135.3 -326.689 139.906 -484.051 0c153.846 -136.781 334.137 -133.285 484.051 0zM317.244 190.012c0 -32.6904 -26.5 -59.1914 -59.1904 -59.1914c-32.6895 0 -59.1895 26.501 -59.1895 59.1914s26.5 59.1914 59.1895 59.1914
c32.6904 0 59.1904 -26.501 59.1904 -59.1914zM381.034 189.986c0 67.9561 -55.0566 123.019 -122.975 123.019c-67.9189 0 -122.976 -55.0635 -122.976 -123.019c0 -67.9199 55.0586 -122.979 122.976 -122.979s122.975 55.0596 122.975 122.979zM362.348 189.986
c0 -57.6016 -46.6895 -104.293 -104.288 -104.293c-57.5996 0 -104.289 46.6914 -104.289 104.293c0 57.6426 46.6914 104.331 104.289 104.331s104.288 -46.6895 104.288 -104.331zM481.703 216.451l11.5977 14.6553c-147.327 116.594 -318.135 120.59 -470.526 0
l11.5967 -14.6553c146.005 115.536 306.117 111.757 447.332 0zM492.159 145.877l-11.8701 14.4346c-140.386 -115.455 -299.351 -119.371 -444.503 0l-11.8711 -14.4346c151.602 -124.675 321.694 -120.524 468.244 0zM316.726 221.458
c0 15.4893 -12.5566 28.0479 -28.0479 28.0479s-28.0479 -12.5566 -28.0479 -28.0479s12.5566 -28.0479 28.0479 -28.0479s28.0479 12.5566 28.0479 28.0479z" />
    <glyph glyph-name="uniF3B1" unicode="&#xf3b1;" 
d="M0 448h512v-512h-512v512zM360.987 164.78l94.4746 44.0566c30.9502 17.6865 -1.25391 57.8145 -30.6309 41.6963l-50.668 -21.9609l-41.6143 64.4355l-59.7715 -12.1006zM347.455 248.288l-87.2607 47.5967l-81.9209 -47.5967
c47.041 -49.8682 52.6338 -99.7686 0 -149.693h169.182c-52.0137 49.8984 -40.5469 99.7969 0 149.693zM351.386 42.6445l-59.4434 -54.3682l94.0225 -29.3379zM170.947 43.5889l-34.5781 -83.708l94.0225 29.335zM94.5781 85.8232
c-8.35938 -31.2051 53.5674 -74.917 138.323 -97.626h61.7832c84.7559 22.709 146.683 66.4209 138.323 97.626c-8.35938 31.2041 -83.8467 38.0928 -169.216 15.3838c-85.3672 22.709 -160.853 15.8203 -169.214 -15.3838zM190.841 280.95
c0 -21.9268 32.4805 -39.7021 72.5459 -39.7021c40.0664 0 72.5469 17.7754 72.5469 39.7021s-32.4805 39.7002 -72.5469 39.7002c-40.0654 0 -72.5459 -17.7734 -72.5459 -39.7002zM165.37 164.78l88.2109 116.127l-59.7725 12.1006l-41.6133 -64.4355l-50.6689 21.9609
c-29.376 16.1182 -61.5801 -24.0098 -30.6309 -41.6963zM200.648 366.668c0 45.2734 28.083 81.9688 62.7422 81.9688c34.6416 0 62.7217 -36.6973 62.7217 -81.9688c0 -45.2949 -28.0791 -81.9961 -62.7217 -81.9961c-34.6611 0 -62.7422 36.6992 -62.7422 81.9961z
M216.996 366.668c0 -33.5049 20.7568 -60.6318 46.3945 -60.6318c25.6143 0 46.375 27.125 46.375 60.6318c0 33.4766 -20.7588 60.6045 -46.375 60.6045c-25.6387 0 -46.3945 -27.1299 -46.3945 -60.6045zM208.821 366.655c0 -39.3818 24.4287 -71.3076 54.5635 -71.3076
s54.5645 31.9258 54.5645 71.3076s-24.4297 71.3047 -54.5645 71.3047s-54.5635 -31.9229 -54.5635 -71.3047zM204.166 366.658l9.68652 -15.9824c32.7119 19.8262 65.293 19.084 96.7676 0.000976562l9.68945 15.9814c-36.8564 22.3457 -77.7891 23.2461 -116.144 0z
M271.006 405.699h-18.6885v-66.7607h18.6885v66.7607zM189.47 90.2363l-5.89062 -17.7363l235.907 -78.3496l5.88965 17.7363zM127.063 34.1016l-8.90527 -16.4297c62.1494 -33.6895 107.302 -44.3613 174.669 -48.3643l1.1084 18.6562
c-65.9346 3.91797 -106.669 13.5039 -166.872 46.1377zM339.015 72.5l-5.89062 17.7363l-77.4736 -25.7334l5.89062 -17.7354z" />
    <glyph glyph-name="uniF2DE" unicode="&#xf2de;" 
d="M0 448h512v-512h-512v512zM361.626 118.822c8.41113 6.28125 11.5586 18.7295 6.12402 26.0068c-10.9482 14.6553 -102.808 103.425 -102.808 103.425s58.0205 -112.562 69.4199 -127.822c5.72461 -7.66309 19.0371 -7.75098 27.2637 -1.60938zM150.99 118.822
c8.22656 -6.1416 21.5391 -6.05371 27.2627 1.60938c11.4004 15.2607 69.4209 127.822 69.4209 127.822s-91.8604 -88.7695 -102.808 -103.425c-5.43457 -7.27734 -2.28711 -19.7256 6.12402 -26.0068zM292.276 90.9814c10.3359 1.83203 18.7334 11.5537 17.1406 20.4941
c-3.20898 18.0107 -45.4824 138.556 -45.4824 138.556s1.35547 -126.629 4.69824 -145.381c1.67871 -9.41504 13.5361 -15.4668 23.6436 -13.6689zM220.338 90.9814c10.1074 -1.79785 21.9648 4.25391 23.6436 13.6689c3.34277 18.752 4.69824 145.381 4.69824 145.381
s-42.2734 -120.545 -45.4824 -138.556c-1.59277 -8.94043 6.80371 -18.6621 17.1406 -20.4941zM393.216 290.764c0 75.6133 -61.2969 136.911 -136.911 136.911c-75.6133 0 -136.911 -61.2979 -136.911 -136.911c0 -75.6143 61.2979 -136.911 136.911 -136.911
c75.6143 0 136.911 61.2969 136.911 136.911zM256.103 171.287c-10.4971 0 -20.4697 8.08594 -20.4697 17.167c0 18.29 18.1172 16.9951 20.4697 49.835c2.94727 -32.8916 20.8809 -30.3525 20.8809 -49.4033c0 -9.56152 -10.6133 -17.5986 -20.8809 -17.5986z
M236.854 235.23c0 -17.6357 -14.2949 -31.9316 -31.9307 -31.9316s-31.9307 14.2959 -31.9307 31.9316s14.2949 31.9326 31.9307 31.9326s31.9307 -14.2969 31.9307 -31.9326zM339.634 235.23c0 -17.6357 -14.2949 -31.9316 -31.9307 -31.9316
s-31.9307 14.2959 -31.9307 31.9316s14.2949 31.9326 31.9307 31.9326s31.9307 -14.2969 31.9307 -31.9326zM254.847 93.7891c-3.3252 -46.3857 -13.1084 -66.6807 -22.7754 -81.1777c-4.85352 -7.27539 -9.92773 -14.5078 -9.92773 -23.9453
c0 -18.874 14.9971 -34.457 33.873 -34.457c18.875 0 34.4561 15.583 34.4561 34.457c0 10.4727 -6.58008 17.8232 -12.2637 25.6963c-10.1084 14.002 -19.3086 34.2129 -23.3604 79.4268h-0.00195312zM379.752 148.993c35.9785 -20.9727 48.4365 -36.8428 56.2783 -50.332
c3.93555 -6.76758 7.74805 -13.7041 15.3359 -17.4287c15.1738 -7.44434 33.6172 -1.5332 41.0605 13.6445c7.44434 15.1768 1.06348 33.8467 -14.1094 41.292c-8.4209 4.13184 -16.9248 1.73828 -25.4971 0.280273c-15.2402 -2.61621 -35.1211 -2.03906 -73.0684 12.5439z
M132.863 148.993c-37.9473 -14.583 -57.8281 -15.1602 -73.0684 -12.5439c-8.57227 1.45801 -17.0762 3.85156 -25.4971 -0.280273c-15.1729 -7.44531 -21.5537 -26.1152 -14.1094 -41.292c7.44336 -15.1777 25.8867 -21.0889 41.0605 -13.6445
c7.58691 3.72461 11.3994 10.6611 15.3359 17.4287c7.8418 13.4893 20.2988 29.3594 56.2783 50.332zM185.033 101.136l0.0078125 -0.00195312c-26.6201 -36.7666 -44.8691 -49.4238 -60.7188 -56.2793c-8.91309 -3.85352 -18.3281 -6.80078 -23.6885 -15.7988
c-9.6582 -16.2129 -4.24609 -37.5752 11.9688 -47.2354c16.2139 -9.66016 37.0742 -3.94727 46.7344 12.2646c4.82129 8.10938 4.16406 16.9209 3.7168 25.6523c-0.885742 17.4043 1.09766 39.8457 21.9795 81.3984zM327.353 101.136
c20.8818 -41.5527 22.8652 -63.9941 21.9795 -81.3984c-0.447266 -8.73145 -1.10449 -17.543 3.7168 -25.6523c9.66016 -16.2119 30.5205 -21.9248 46.7344 -12.2646c16.2148 9.66016 21.627 31.0225 11.9688 47.2354c-5.36035 8.99805 -14.7754 11.9453 -23.6885 15.7988
c-15.8496 6.85547 -34.0986 19.5127 -60.7188 56.2793z" />
    <glyph glyph-name="uniF4F9" unicode="&#xf4f9;" 
d="M0 448h512v-512h-512v512zM493.729 185.044c-122.019 208.925 -319.158 229.713 -473.167 0c155.982 -135.653 330.42 -137.774 473.167 0zM278.545 61.3496c-11.585 0.551758 -23.041 2.18457 -33.877 5.1543l34.6133 38.2969l14.7285 -43.4512
c-5.38379 -0.290039 -10.1924 -0.25 -15.4648 0zM325.678 65.7676l7.36523 42.7148l31.668 -25.7754c-12.1162 -7.10547 -25.0557 -13.2842 -39.0332 -16.9395zM218.891 76.0781c-19.1367 9.10547 -36.1318 21.791 -50.0791 37.5605l64.0713 16.9395l-13.9922 -54.498
v-0.00195312zM391.223 101.855l-16.2031 38.2969l43.4502 -4.41797c-7.64844 -12.376 -16.5273 -24.0859 -27.249 -33.877zM156.29 129.844c-14.166 20.916 -23.1719 45.4746 -25.7754 72.1729l76.5918 -25.0391l-50.8164 -47.1318v-0.00195312zM433.198 163.722
l-39.0322 26.5117l47.8701 23.5664c-0.352539 -17.6006 -3.0498 -34.2744 -8.83789 -50.0801v0.00195312zM129.776 215.272c-0.380859 31.1797 8.6543 60.7002 24.3027 85.4297l57.4434 -70.7012zM440.561 240.312l-58.1816 2.20898l35.3496 58.1797
c11.4092 -17.9932 19.5781 -38.2598 22.8301 -60.3906zM243.187 272.714l-84.6934 35.3496c18.2607 25.6143 44.0459 45.8057 74.3828 56.707l10.3105 -92.0586v0.00195312zM344.818 280.077l-2.94531 82.4844c25.2275 -9.72266 47.0332 -25.791 64.0723 -46.3965
l-61.127 -36.0859v-0.00195312zM293.266 291.126l-52.2881 75.8545c11.6221 3.47656 24.1768 5.21289 36.8232 5.89258c18.2764 0.983398 35.6768 -0.986328 52.2891 -5.89258zM211.854 199.719c-2.5498 -47.415 33.8477 -87.9482 81.2627 -90.4971
c47.4141 -2.5498 87.9473 33.8477 90.4971 81.2627c2.55078 47.4551 -33.8525 87.9473 -81.2627 90.4971c-47.4102 2.54883 -87.9463 -33.8076 -90.4971 -81.2627zM230.516 198.715c1.99707 37.1475 33.7197 65.5996 70.832 63.6045
c37.1133 -1.99512 65.6016 -33.6846 63.6045 -70.832c-1.99512 -37.1084 -33.7236 -65.5996 -70.832 -63.6045s-65.5996 33.7246 -63.6045 70.832zM357.248 233.562c0 20.7695 -16.8398 37.6104 -37.6094 37.6104c-20.7705 0 -37.6104 -16.8408 -37.6104 -37.6104
s16.8398 -37.6104 37.6104 -37.6104c20.7695 0 37.6094 16.8379 37.6094 37.6104z" />
    <glyph glyph-name="uniF188" unicode="&#xf188;" 
d="M0 448h512v-512h-512v512zM458.071 76.4863c-64.8584 -112.34 -208.479 -150.823 -320.817 -85.9639c-112.34 64.8594 -150.823 208.479 -85.9639 320.818s208.479 150.822 320.818 85.9629c112.34 -64.8584 150.822 -208.479 85.9629 -320.817zM474.257 67.1416
c70.0186 121.275 28.4717 276.329 -92.8037 346.348c-121.276 70.0186 -276.33 28.4717 -346.349 -92.8037c-70.0176 -121.276 -28.4717 -276.33 92.8047 -346.349c121.275 -70.0186 276.329 -28.4717 346.348 92.8047zM466.167 71.8184
c67.4346 116.801 27.416 266.151 -89.3848 333.586c-116.8 67.4346 -266.15 27.415 -333.585 -89.3848s-27.416 -266.151 89.3848 -333.586c116.8 -67.4336 266.15 -27.415 333.585 89.3848zM428.155 92.2129c-41.3467 -71.5723 -126.902 -99.584 -191.081 -62.5518
c-64.1748 37.0303 -82.6875 125.085 -41.3389 196.662c41.3457 71.5723 126.902 99.584 191.081 62.5518c64.1748 -37.0303 82.6875 -125.085 41.3389 -196.662zM443.481 83.3691c46.8008 81.0156 25.8545 180.682 -46.791 222.599
c-72.6416 41.915 -169.478 10.2188 -216.281 -70.8008c-46.8008 -81.0156 -25.8545 -180.682 46.791 -222.599c72.6406 -41.915 169.478 -10.2188 216.281 70.8008zM435.821 87.7969c44.0791 76.3037 24.3506 170.156 -44.0654 209.633
c-68.416 39.4775 -159.604 9.62598 -203.684 -66.6768c-44.0791 -76.3037 -24.3506 -170.156 44.0654 -209.634c68.416 -39.4766 159.606 -9.62207 203.684 66.6777zM387.537 124.26c-42.0557 -72.8125 -119.347 -106.909 -172.635 -76.1562
c-53.2881 30.7539 -62.3945 114.71 -20.3379 187.524c42.0557 72.8145 119.347 106.909 172.634 76.1562c53.2881 -30.7539 62.3945 -114.71 20.3389 -187.524zM409.817 106.154c25.875 44.6895 14.2939 99.6602 -25.8682 122.782
c-40.1621 23.1211 -93.6953 5.63672 -119.57 -39.0527c-25.876 -44.6904 -14.2949 -99.6611 25.8672 -122.782s93.6953 -5.63672 119.571 39.0527zM394.473 114.988c-20.417 -35.2627 -62.6504 -49.0566 -94.3398 -30.8125
c-31.6904 18.2441 -40.8271 61.6113 -20.4102 96.874c20.418 35.2627 62.6504 49.0566 94.3408 30.8125c31.6895 -18.2441 40.8262 -61.6113 20.4092 -96.874zM331.539 176.078c0 -11.2676 -9.14355 -20.4004 -20.4297 -20.4004
c-11.2607 0 -20.4092 9.12988 -20.4092 20.4004c0 11.2695 9.14844 20.4004 20.4092 20.4004c11.2861 0 20.4297 -9.13379 20.4297 -20.4004zM350.23 176.078c0 21.5977 -17.5293 39.085 -39.1211 39.085c-21.5762 0 -39.1006 -17.4902 -39.1006 -39.085
s17.5244 -39.085 39.1006 -39.085c21.5918 0 39.1211 17.4873 39.1211 39.085zM340.876 176.078c0 16.4277 -13.3232 29.7461 -29.7578 29.7461c-16.4336 0 -29.7568 -13.3184 -29.7568 -29.7461c0 -16.4268 13.3232 -29.7451 29.7568 -29.7451
c16.4346 0 29.7578 13.3164 29.7578 29.7451z" />
    <glyph glyph-name="uniF446" unicode="&#xf446;" 
d="M0 448h512v-512h-512v512zM191.653 213.081c16.4395 16.4395 39.2617 26.4961 64.3467 26.4961c25.084 0 47.9072 -10.0566 64.3457 -26.4961l41.6367 41.6367l-30.2812 90.8418c-15.1396 45.4219 -15.1396 60.5615 -75.7012 60.5615
s-60.5615 -15.1396 -75.7021 -60.5615l-30.2812 -90.8418zM316.562 148.735c0 33.4463 -27.1152 60.5615 -60.5615 60.5615c-33.4473 0 -60.5615 -27.1152 -60.5615 -60.5615c0 -33.4473 27.1143 -60.5615 60.5615 -60.5615c33.4463 0 60.5615 27.1143 60.5615 60.5615z
M343.898 172.287v0.00292969c6.0166 -22.4561 3.31445 -47.248 -9.22754 -68.9736c-12.543 -21.7246 -32.6631 -36.4609 -55.1191 -42.4775l15.2402 -56.876l93.8115 -19.1982c46.9062 -9.59863 60.0176 -17.1689 90.2988 35.2783
c30.2803 52.4482 17.1689 60.0186 -14.5967 95.8408l-63.5312 71.6436zM232.447 60.8359v-0.00292969c-22.4561 6.0166 -42.5762 20.7529 -55.1182 42.4775c-12.5439 21.7256 -15.2451 46.5176 -9.22852 68.9736l-56.876 15.2402l-63.5312 -71.6445
c-31.7656 -35.8213 -44.877 -43.3916 -14.5967 -95.8398c30.2812 -52.4473 43.3926 -44.8779 90.2988 -35.2783l93.8115 19.1982z" />
    <glyph glyph-name="uniF423" unicode="&#xf423;" 
d="M0 448h512v-512h-512v512zM421.993 425.356h-18.1055h-298.434h-18.1055v-18.1055v-411.149h36.209v393.044h39.1299v-393.044h36.209v393.044h36.7939v-393.044h36.7939v393.044h39.7139v-393.044h36.209v393.044h37.377v-393.044h36.209v411.149v18.1055z
M402.853 321.214h-292.953v-36.334h292.953v36.334zM402.853 215.265h-292.953v-36.334h292.953v36.334zM402.853 109.291h-292.953v-36.3379h292.953v36.3379zM394.339 435.484h-18.6885v-467.488h18.6885v467.488zM320.771 435.484h-18.6885v-467.488h18.6885v467.488z
M244.229 435.484h-18.6885v-467.488h18.6885v467.488zM171.189 435.484h-18.6885v-467.488h18.6885v467.488zM98.1689 435.484h-18.6885v-467.488h18.6885v467.488zM440.738 9.45703l-30.5352 -58.0527l-30.5352 58.0527zM366.3 9.45703l-30.5352 -58.0527l-30.5352 58.0527
zM291.06 9.45703l-30.5352 -58.0527l-30.5352 58.0527zM216.621 9.45703l-30.5352 -58.0527l-30.5352 58.0527zM140.782 9.45703l-30.5352 -58.0527l-30.5352 58.0527z" />
    <glyph glyph-name="uniF514" unicode="&#xf514;" 
d="M0 448h512v-512h-512v512zM256 341.998c-60 -180 -150 -210 -150 -255c0 -90 72.8369 -135 150 -135s150 45 150 135c0 45 -90 75 -150 255zM256 221.998c15 -45 90 -120 90 -135c0 -45 -45.0332 -90 -90 -90c-45.0332 0 -90 45 -90 90c0 15 75 90 90 135zM211 357.001
c-8.28027 0 -15 -6.71973 -15 -15v-90c0 -8.28027 6.71973 -15 15 -15h90c8.28027 0 15 6.71973 15 15v90c0 8.28027 -6.71973 15 -15 15h-90zM241 432.001c-8.28027 0 -15 -6.71973 -15 -15v-120c0 -8.28027 6.71973 -15 15 -15h30c8.28027 0 15 6.71973 15 15v120
c0 8.28027 -6.71973 15 -15 15h-30z" />
    <glyph glyph-name="uniF115" unicode="&#xf115;" 
d="M0 448h512v-512h-512v512zM372.774 100.792l-224.451 -9.67871l37.5527 -97.6309l61.3994 -35.2412l98.8105 39.5859zM171.358 210.302l251.298 3.91699l26.4668 101.866l-117.63 100.888l-144.096 8.81348l-127.433 -128.31l33.3301 -96.9697zM131.92 339.347
l98.0518 -51.3564l-116.249 -13.4482zM378.103 340.273l13.2822 -67.2158l-107.278 16.2441zM178.815 245.641l-18.1406 4.49121l-60.4678 -244.237l90.5576 81.291l22.1133 -56.1338l43.1963 57.5312l41.1064 -65.1943l32.25 66.5215l103.642 -82.4951l-83.7598 242.915
l-17.667 -6.0918l62.8291 -182.215l-71.6738 57.0498l-27.7578 -57.2539l-37.627 59.6758l-39.4053 -52.4834l-19.7168 50.0479l-65.3389 -58.6533zM169.749 247.894l-53.1738 -214.741l77.9531 69.9688l20.9219 -53.0908l41.2949 55.0156l39.3672 -62.4424l30.0068 61.8926
l87.6602 -69.7715l-73.2998 212.558zM95.9863 407.589l-8.01367 -16.8838l112.733 -53.5107l8.01367 16.8838zM297.224 355.945l9.05566 -16.3477l92.749 51.375l-9.05566 16.3486zM255.08 216.829l55.8545 -64.7236l-54.1396 -19.2646l-50.2197 19.2646zM257.285 181.871
l-19.3994 -54.7373h41.7354z" />
    <glyph glyph-name="uniF464" unicode="&#xf464;" 
d="M0 448h512v-512h-512v512zM431.747 136.815c0 42.5752 -79.0254 77.0869 -176.507 77.0869s-176.506 -34.5117 -176.506 -77.0869c39.3447 -39.3447 79.0244 -66.998 176.506 -66.998s136.474 26.9658 176.507 66.998zM397.904 383.762
c-34.7051 -6.45703 -50.3379 -53.3408 -34.917 -104.718c15.4199 -51.377 56.0547 -87.791 90.7598 -81.334c34.7051 6.45801 50.3398 53.3418 34.9189 104.719s-56.0557 87.791 -90.7617 81.333zM138.105 103.391l-8.57031 16.6084
c-32.7275 -16.8896 -46.3496 -57.2646 -45.5186 -101.484l18.6846 0.350586c-0.774414 41.2285 12.3955 72.6523 35.4043 84.5254zM186.798 103.391l-8.57031 16.6084c-32.7275 -16.8896 -46.3496 -57.2646 -45.5186 -101.484l18.6855 0.350586
c-0.775391 41.2285 12.3945 72.6523 35.4033 84.5254zM390.985 119.999l-8.57031 -16.6084c23.0088 -11.873 36.1787 -43.2969 35.4043 -84.5254l18.6855 -0.350586c0.831055 44.2197 -12.791 84.5947 -45.5195 101.484zM342.313 119.997l-8.5752 -16.6045
c22.9922 -11.873 36.1641 -43.2998 35.4062 -84.5312l18.6855 -0.342773c0.8125 44.2178 -12.8086 84.5889 -45.5166 101.479zM212.083 105.298l-13.623 12.7939c-17.0586 -18.165 -22.5391 -56.2822 -22.1514 -99.4854l18.6875 0.166992
c-0.378906 42.2461 7.13477 75.9268 17.0869 86.5244zM322.057 118.096l-13.6143 -12.8018c9.96484 -10.5977 17.4795 -44.2715 17.082 -86.5166l18.6885 -0.174805c0.405273 43.2041 -5.07422 81.3281 -22.1562 99.4932zM208.024 248.194l-17.9531 -5.19043
l17.2832 -59.7881l17.9531 5.18945zM326.872 243.004l-17.9531 5.19043l-17.2832 -59.7891l17.9531 -5.18945zM380.329 385.374c42.3271 4.9502 62.7559 -75.3154 48.2295 -130.88c-33.542 23.3926 -64.5547 63.4307 -78.8252 112.016zM129.703 356.709
c-31.5947 11.459 -75.4209 -16.4277 -97.8906 -62.2861c-22.4697 -45.8594 -15.0723 -92.3262 16.5215 -103.785c31.5928 -11.46 75.4199 16.4268 97.8887 62.2861c22.4697 45.8594 15.0732 92.3252 -16.5195 103.785zM151.278 346.173
c-39.4834 11.5137 -74.7041 -52.835 -71.6895 -102.341c36.6289 13.9814 74.0977 42.4756 97.2363 81.0938zM60.7109 213.941l-17.2695 7.14062c-13.5576 -32.7861 -11.5645 -96.749 48.2178 -87.6729l-2.80566 18.4766
c-35.6689 -5.41504 -41.1943 30.4902 -28.1426 62.0557zM448.475 230.241l-15.1035 -11.0049c19.7891 -27.1602 23.124 -65.4482 -13.1152 -70.623l2.64258 -18.501c59.3574 8.47656 46.5586 71.333 25.5762 100.129zM216.696 255.327
c0 10.5439 -8.54785 19.0918 -19.0918 19.0918s-19.0918 -8.54785 -19.0918 -19.0918c0 -10.543 8.54785 -19.0889 19.0918 -19.0889s19.0918 8.5459 19.0918 19.0889zM301.688 254.607c0 -10.5439 8.54785 -19.0898 19.0918 -19.0898s19.0918 8.5459 19.0918 19.0898
s-8.54785 19.0918 -19.0918 19.0918s-19.0918 -8.54785 -19.0918 -19.0918zM387.664 134.186l8.2002 16.793l-59.3916 29.002l-35.7852 -39.168l-48.4365 37.3418l-37.8047 -39.4092l-35.7207 36.8789l-52.6738 -26.501l8.40039 -16.6953l40.4043 20.3291l39.6543 -40.9404
l39.6143 41.2949l48.7656 -37.5947l37.9473 41.5352zM342.314 196.55l-12.0635 -14.2734l65.209 -55.1162l12.0635 14.2725zM193.555 182.276l-12.0645 14.2734l-65.209 -55.1172l12.0635 -14.2725z" />
    <glyph glyph-name="uniF4A5" unicode="&#xf4a5;" 
d="M0 448h512v-512h-512v512zM452.444 170.92c0 107.921 -87.4844 195.406 -195.402 195.406s-195.403 -87.4883 -195.403 -195.406s87.4854 -195.402 195.403 -195.402s195.402 87.4844 195.402 195.402zM410.844 170.11c0 -84.9424 -68.8594 -153.803 -153.803 -153.803
c-84.9424 0 -153.803 68.8604 -153.803 153.803c0 84.9434 68.8604 153.806 153.803 153.806c84.9434 0 153.803 -68.8604 153.803 -153.806zM291.194 -11.4199c0 -18.8076 -15.2188 -34.0264 -34.0264 -34.0264c-18.7754 0 -34.0264 15.2256 -34.0264 34.0264
c0 18.7695 15.2568 34.0264 34.0264 34.0264c18.8018 0 34.0264 -15.25 34.0264 -34.0264zM309.882 -11.4199c0 29.0879 -23.585 52.7139 -52.7139 52.7139c-29.0938 0 -52.7139 -23.6191 -52.7139 -52.7139c0 -29.1289 23.626 -52.7139 52.7139 -52.7139
c29.1221 0 52.7139 23.5918 52.7139 52.7139zM300.545 -11.4287c0 23.9531 -19.417 43.3711 -43.3711 43.3711s-43.3721 -19.4209 -43.3721 -43.3711c0 -23.9512 19.418 -43.3682 43.3721 -43.3682s43.3711 19.417 43.3711 43.3682zM374.431 14.7334
c0 -18.8086 -15.2188 -34.0264 -34.0264 -34.0264c-18.7754 0 -34.0264 15.2246 -34.0264 34.0264c0 18.7686 15.2568 34.0254 34.0264 34.0254c18.8018 0 34.0264 -15.25 34.0264 -34.0254zM393.118 14.7334c0 29.0879 -23.585 52.7139 -52.7139 52.7139
c-29.0938 0 -52.7139 -23.6201 -52.7139 -52.7139c0 -29.1289 23.626 -52.7148 52.7139 -52.7148c29.1221 0 52.7139 23.5918 52.7139 52.7148zM383.781 14.7236c0 23.9541 -19.418 43.3711 -43.3711 43.3711c-23.9541 0 -43.3721 -19.4209 -43.3721 -43.3711
s19.418 -43.3682 43.3721 -43.3682c23.9531 0 43.3711 19.418 43.3711 43.3682zM205.329 14.7334c0 -18.8086 -15.2178 -34.0264 -34.0254 -34.0264c-18.8086 0 -34.0264 15.2178 -34.0264 34.0264c0 18.7754 15.2246 34.0254 34.0264 34.0254
c18.8008 0 34.0254 -15.25 34.0254 -34.0254zM224.018 14.7334c0 29.0879 -23.5859 52.7139 -52.7139 52.7139c-29.1289 0 -52.7148 -23.626 -52.7148 -52.7139c0 -29.123 23.5918 -52.7148 52.7148 -52.7148c29.1221 0 52.7139 23.5918 52.7139 52.7148zM214.68 14.7236
c0 23.9541 -19.417 43.3711 -43.3711 43.3711s-43.3711 -19.4209 -43.3711 -43.3711s19.417 -43.3682 43.3711 -43.3682s43.3711 19.418 43.3711 43.3682zM363.815 350.518c0 -40.5742 -43.6201 -78.5098 -103.175 -78.5098c-59.5537 0 -103.143 37.9316 -103.143 78.5098
s43.5898 78.5107 103.143 78.5107c59.5557 0 103.175 -37.9355 103.175 -78.5107zM381.567 350.518c0 57.0273 -56.7275 98.1836 -120.927 98.1836c-64.2031 0 -120.895 -41.1592 -120.895 -98.1836c0 -57.0234 56.6924 -98.1836 120.895 -98.1836
c64.2002 0 120.927 41.1553 120.927 98.1836zM372.687 350.52c0 48.791 -50.1621 88.3447 -112.038 88.3447s-112.038 -39.5508 -112.038 -88.3447c0 -48.7949 50.1621 -88.3496 112.038 -88.3496s112.038 39.5547 112.038 88.3496zM184.673 299.034v-55.2246h150.808
v55.2246h-150.808zM226.662 299.173h-18.6885v-60.0811h18.6885v60.0811zM269.679 299.173h-18.6885v-60.0811h18.6885v60.0811zM312.111 299.173h-18.6885v-60.0811h18.6885v60.0811zM267.744 348.721c0 27.3281 -22.1904 49.5078 -49.5459 49.5078
c-27.3643 0 -49.5088 -22.1914 -49.5088 -49.5078c0 -27.3486 22.1406 -49.5469 49.5088 -49.5469c27.3594 0 49.5459 22.1865 49.5459 49.5469zM249.055 348.721c0 -17.04 -13.8174 -30.8574 -30.8564 -30.8574c-17.0312 0 -30.8193 13.8057 -30.8193 30.8574
c0 17.0068 13.7842 30.8184 30.8193 30.8184c17.043 0 30.8564 -13.8242 30.8564 -30.8184zM350.362 348.721c0 27.3281 -22.1904 49.5078 -49.5469 49.5078c-27.3643 0 -49.5078 -22.1914 -49.5078 -49.5078c0 -27.3486 22.1396 -49.5469 49.5078 -49.5469
c27.3604 0 49.5469 22.1865 49.5469 49.5469zM331.673 348.721c0 -17.04 -13.8174 -30.8574 -30.8574 -30.8574c-17.0312 0 -30.8184 13.8057 -30.8184 30.8574c0 17.0068 13.7832 30.8184 30.8184 30.8184c17.0439 0 30.8574 -13.8242 30.8574 -30.8184z" />
    <glyph glyph-name="uniF16D" unicode="&#xf16d;" 
d="M0 448h512v-512h-512v512zM296.462 301.874v-226.048h114.152v226.048h-114.152zM332.576 217.181h-18.6885v-125.946h18.6885v125.946zM393.57 217.181h-18.6885v-125.946h18.6885v125.946zM69.9023 223.479l-47.9062 -178.793l94.4258 -25.3027l12.0674 45.0371
l-37.1133 9.94434l63.4961 139.518zM120.874 347.631l-52.5615 -53.1445v-85.2666h198.837v-75.9229h174.523v214.334h-320.799zM108.296 152.078v-18.6885h300.039v18.6885h-300.039zM219.716 217.328l-7.32812 -49.4551l-39.6572 47.9863zM199.22 133.426v-18.6885
h300.039v18.6885h-300.039zM461.188 320.458h34.1465v-52.8174h-34.1465v52.8174zM442.5 339.146v-90.1943h71.5234v90.1943h-71.5234zM451.845 329.798v-71.4951h52.8438v71.4951h-52.8438zM298.979 312.396h108.802v-32.9707h-108.802v32.9707zM406.126 335.77h18.6895
v40.6631h-18.6895v-40.6631z" />
    <glyph glyph-name="uniF515" unicode="&#xf515;" 
d="M0 448h512v-512h-512v512zM348.974 375.176c-1.73438 55.2656 -66.5547 69.5488 -94.3643 21.3828c-27.1475 47.0176 -96.4375 34.8232 -94.6436 -21.3848c1.87109 -58.5273 85.6279 -92.6436 94.6436 -126.288c8.25098 30.7969 96.126 70.2012 94.3643 126.29z
M254.544 164.514l-85.4805 -105.143l85.4805 -105.143l85.4805 105.143zM373.589 107.287l36.1904 86.6719l36.1895 -86.668zM324.629 199.708c1.56348 -49.7969 59.9648 -62.666 85.0234 -19.2656c24.459 -42.3652 86.8916 -31.3809 85.2725 19.2656
c-1.68262 52.7344 -85.2725 113.785 -85.2725 113.785s-86.6094 -63.252 -85.0234 -113.785zM69.7607 106.569l36.1895 86.6719l36.1904 -86.668zM106.231 311.459c-24.5205 0 -44.6523 -19.5723 -44.6523 -44.0977c0 -10.2197 3.6875 -19.8477 9.48926 -27.3535
c-1.84668 0.232422 -3.67285 0.553711 -5.58203 0.553711c-24.5254 0 -44.6572 -20.1309 -44.6572 -44.6562c0 -24.5264 20.1318 -44.6572 44.6572 -44.6572c18.2109 0 33.8965 11.1074 40.748 26.7939c6.90625 -15.5566 22.6309 -26.7939 40.749 -26.7939
c24.5273 0 44.0996 20.1309 44.0996 44.6572c0 24.5254 -19.5742 44.6562 -44.0996 44.6562c-2.09961 0 -4.11914 -0.267578 -6.1416 -0.553711c5.8877 7.53418 9.48828 17.0498 9.48828 27.3535c0 24.5254 -19.5732 44.0977 -44.0986 44.0977z" />
    <glyph glyph-name="uniF1EF" unicode="&#xf1ef;" 
d="M0 448h512v-512h-512v512zM494.71 433.743c-59.499 -61.2725 -160.655 -122.678 -228.944 -123.396c0.436523 -68.376 -140.355 -159.2 -251.968 -213.453v-122.971c198.72 41.8438 479.941 155.703 480.912 459.819zM4.88965 43.2314l5.62793 -17.8213
c210.5 66.4854 393.046 186.862 367.097 336.427l-18.4131 -3.19531c22.7441 -131.093 -142.53 -248.521 -354.312 -315.41zM149.882 88.0664l-18.0957 -4.66797l26.7363 -103.646l18.0967 4.66895zM374.761 329.686l-12.2832 -14.085l111.511 -97.2568l12.2842 14.084z
M337.589 225.189l-18.5713 -2.08984l15.1846 -134.908l18.5713 2.08984zM183.939 115.222l-11.0557 -15.0674l132.371 -97.1299l11.0557 15.0674zM466.897 191.538l-2.7002 18.4922l-131.987 -19.2725l2.7002 -18.4922z" />
    <glyph glyph-name="uniF4AA" unicode="&#xf4aa;" 
d="M0 448h512v-512h-512v512zM290.709 300.521c-18.2441 4.0498 9.12305 -2.02441 -9.12207 2.02539c0 0 -1.2666 -1.68652 -4.50781 -0.75c-5.07324 1.4668 -8.43066 8.76953 -5.9834 15.7715c4.00977 11.4697 19.5947 16.8564 32.9141 11.751
c19.9326 -7.63965 25.5068 -32.0713 19.126 -55.6865c-7.13965 -26.4014 -35.0771 -40.5654 -64.4854 -32.7568c-87.5449 23.252 -88.0078 141.56 -210.694 136.729l0.735352 -18.6748c110.008 4.33203 96.04 -107.135 205.162 -136.117
c37.5361 -9.9668 77.0889 8.09961 87.3232 45.9404c7.41602 27.4492 2.91602 65.2158 -30.4785 78.0166c-20.2988 7.78027 -48.6973 1.41309 -57.2441 -23.0342c-4.92578 -14.0957 -0.107422 -34.5332 18.4355 -39.8926c9.36621 -2.70703 24.7354 0.205078 27.9424 14.6533z
M208.096 1.07715h-119.316l-26.4512 -47.7412h257.164l-88.4785 103.25c24.2705 26.708 67.4541 43.707 96.9971 45.0654c13.793 -45.0977 36.249 -113.498 71.7344 -148.314h60.8652c-46.8955 50.6816 -82.4316 120.321 -82.7197 198.883l10.3486 37.9121
c-92.9365 58.2773 -331.699 -75.1377 -180.142 -189.054zM468.245 140.109c27.3359 27.3359 34.3662 64.624 15.7031 83.2881c-18.6641 18.6631 -55.9531 11.6338 -83.2881 -15.7021c-27.3359 -27.3359 -34.3662 -64.625 -15.7031 -83.2891
c18.6641 -18.6631 55.9531 -11.6328 83.2881 15.7031zM140.661 87.3584l18.6357 -1.41504c6.75977 88.9912 151.656 140.993 228.146 105.108l7.93848 16.9189c-84.8545 39.8105 -246.533 -12.8428 -254.72 -120.612zM21.751 372.672v-47.1357
c50.7275 45.2393 107.643 14.1865 155.887 -51.4834l10.7852 16.0254c-62.1709 88.9932 -104.701 123.158 -166.672 82.5938zM310.895 363.997c63.7861 -18.4414 66.6436 -100.817 27.71 -132.69l85.4893 13.001l-43.3203 14.5625l77.6885 45.3477l-75.377 -3.54883
l61.7305 79.2959l-78.5 -35.002l8.72559 65.6084l-35.084 -43.3877l-25.0068 42.8955zM270.486 314.884l29.8701 -17.0684c-12.1406 -12.1426 -31.4697 -6.36523 -29.8701 17.0684z" />
    <glyph glyph-name="uniF55C" unicode="&#xf55c;" 
d="M0 448h512v-512h-512v512zM256 402c-81.8223 0 -150 -63.3662 -150 -150v-150c0 -6.66797 -0.757812 -23.5576 0 -30h300c0.757812 6.44238 0 23.332 0 30v150c0 86.6338 -68.1777 150 -150 150zM16 42v-60h480v60h-480z" />
    <glyph glyph-name="uniF4A0" unicode="&#xf4a0;" 
d="M0 448h512v-512h-512v512zM294.37 373.024c0 8.9248 -7.23438 16.1592 -16.1592 16.1592s-16.1592 -7.23438 -16.1592 -16.1592s7.23438 -16.1592 16.1592 -16.1592s16.1592 7.23438 16.1592 16.1592zM56.6094 333.312c0 6.34766 -5.14648 11.4932 -11.4941 11.4932
c-6.34863 0 -11.4941 -5.14551 -11.4941 -11.4932c0 -6.34863 5.14551 -11.4941 11.4941 -11.4941c6.34766 0 11.4941 5.14551 11.4941 11.4941zM209.676 94.2119c0 11.4346 -9.26953 20.7031 -20.7031 20.7031s-20.7021 -9.26855 -20.7021 -20.7031
c0 -11.4336 9.26855 -20.7021 20.7021 -20.7021s20.7031 9.26855 20.7031 20.7021zM27.1182 420.101c-15.1133 -11.5664 -8.73145 -29.4395 5.9082 -34.4385c-11.8887 -26.7588 18.2959 -38.8125 32.7041 -22.7764c1.77051 -6.35254 5.58984 -11.6582 10.5127 -15.7695
c-6.83398 -17.7148 -0.441406 -35.1738 10.4805 -45.9922c17.0762 -16.9131 34.6396 -11.5029 53.7617 -3.06543c5.01074 -7.76855 11.9639 -14.4404 19.8564 -19.2715c-8.64355 -2.49121 -15.8887 -8.45117 -19.8564 -16.3525
c-12.3574 12.7119 -32.4434 4.76562 -34.2617 -8.56641c-2.85547 -20.9336 23.415 -31.4434 33.0938 -17.7148c4.16016 -10.3516 13.7471 -17.5693 25.1133 -19.2734c-20.3164 -15.8633 -18.6338 -46.4766 -0.975586 -66.0137
c18.9463 -20.9619 43.4609 -16.4912 61.7139 -2.89941c1.91504 -8.89355 6.21191 -16.4883 11.6807 -23.3604c-18.5225 -22.2598 -0.480469 -54.1875 22.7773 -54.8994l207.327 141.917c45.1514 13.9629 14.3711 70.5928 -16.9355 46.7217
c2.45801 48.0107 -46.002 78.1895 -81.1797 63.0703c-8.01562 38.9082 -78.6602 34.9717 -90.5234 4.67188l-25.1143 8.76562c-1.87207 32.2207 -28.6309 57.8164 -61.3203 57.8164c-21.1914 0 -39.7773 -11.1182 -50.8105 -27.4482l-12.2637 7.00879
c-0.319336 17.4639 -14.5791 31.5352 -32.1221 31.5352c-11.5322 0 -21.1982 -6.05762 -26.8643 -15.1826l-9.92773 8.75879c8.42871 21.0059 -16.9229 38.6074 -32.7725 22.7588h-0.00195312zM377.729 236.41c61.9326 0.015625 110.648 -47.7969 110.655 -105.098
c-0.00585938 -50.332 -31.2803 -135.533 -40.209 -158.65c-44.8857 -12.7471 -80.1592 1.89453 -127.644 23.3633l6.58105 46.2588l-4.15039 3.33301c-25.4707 20.4521 -56.8027 56.6338 -56.8047 85.6934c-0.00683594 57.1982 49.5742 105.108 111.571 105.1z
M377.729 255.1c-71.4961 0.00878906 -130.268 -55.3965 -130.259 -123.79c0.00292969 -38.8584 37.2637 -77.9238 59.6523 -96.8613l-7.07129 -49.7051l6.41797 -2.87891c45.3281 -20.3271 93.7383 -45.4717 151.829 -25.5439l4.0498 1.38965l1.5918 3.97363
c0.12793 0.318359 43.126 105.53 43.1348 169.632c-0.00878906 68.291 -57.7725 123.802 -129.346 123.784zM377.729 245.765c-66.7559 0.000976562 -120.915 -51.6611 -120.916 -114.454c-0.000976562 -34.6387 34.3252 -72.1191 60.2969 -92.9775l-6.81738 -47.9326
c46.042 -20.6602 91.0977 -43.7285 144.969 -25.2334c0 0 42.459 105.396 42.459 166.145c0.00195312 62.791 -53.2373 114.454 -119.991 114.453zM447.904 104.851c0 17.5264 14.208 31.7373 31.7373 31.7373s31.7373 -14.2109 31.7373 -31.7373
s-14.208 -31.7334 -31.7373 -31.7334c-17.5303 0 -31.7373 14.208 -31.7373 31.7334zM346.23 121.476c0 20.2314 16.4004 36.6357 36.6357 36.6357s36.6357 -16.4043 36.6357 -36.6357c0 -20.2305 -16.4004 -36.6309 -36.6357 -36.6309s-36.6357 16.4004 -36.6357 36.6309z
M433.059 94.2832l11.6758 -62.9463l-41.793 4.43555zM302.122 1.03711l17.6406 -6.16992c11.5635 33.0586 22.8359 68.8447 11.8252 110.984l-18.0811 -4.72461c9.47656 -36.2705 0.125 -67.1846 -11.3848 -100.09zM301.53 -32.2334l15.3213 27.5449l45.9961 28.4766
l0.40625 -46.4277l34.8848 31.9775l4.34375 -41.209l28.9932 38.8652l22.7686 -40.252zM268.709 239.655l-24.1436 -65.0938l41.3057 -10.623l19.1836 31.2979zM386.75 268.298l-45.0244 -3.26953l4.34863 -39.2734l39 -5.33789z" />
    <glyph glyph-name="uniF578" unicode="&#xf578;" 
d="M0 448h512v-512h-512v512zM258.372 426.857c-44.5576 -0.1875 -87.2354 -7.40137 -118.557 -21.0254l-46.7217 -425.75l127.9 -25.6963h84.6816l129.067 26.2812l-46.7217 425.165c-38.6982 14.3086 -85.0947 21.1953 -129.649 21.0254zM260.893 297.358
l45.9219 -353.388h-91.8447zM121 389.737v-18.6885h279.069v18.6885h-279.069zM121 351.648v-18.6885h279.069v18.6885h-279.069zM289.836 336.938v18.6885h-53.1455v-137.5h46.082v18.6885h-27.3936v100.123h34.457zM289.828 346.275h-43.7969v-118.803h36.75z
M239.628 387.784h53.5654v-53.2188h-53.5654v53.2188zM220.939 406.473v-90.5957h90.9434v90.5957h-90.9434zM230.279 397.127v-71.9043h72.2588v71.9043h-72.2588zM182.376 408.699h-18.6885v-92.6211h18.6885v92.6211zM363.604 408.699h-18.6885v-92.6211h18.6885v92.6211
zM274.578 351.612v18.6885h-41.374v-18.6885h41.374z" />
    <glyph glyph-name="uniF448" unicode="&#xf448;" 
d="M0 448h512v-512h-512v512zM255.876 428.24c-15.5391 -0.336914 -30.4609 -4.18652 -44.9854 -10.4941l22.4941 -41.9912c7.41895 2.65234 15.0156 4.44238 22.4932 4.5c25.6328 0 52.7637 -13.6709 73.4775 -49.4814l85.4746 -148.458l28.4922 46.4912l-71.9785 125.961
c-27.4766 47.5049 -71.0654 73.8496 -115.468 73.4727zM114.921 306.781l-65.9795 -115.468c-25.1533 -43.5088 -26.9307 -92.8203 -5.99707 -131.962c8.6748 -16.2197 21.8281 -29.5264 37.4893 -40.4873l23.9922 40.4873
c-8.04199 6.35938 -14.8945 13.9023 -19.4941 22.4902c-12.5098 23.4014 -13.3232 54.6465 4.49805 85.4756l80.9756 139.464h-55.4844zM435.826 102.844c-1.56348 -7.68652 -3.83301 -14.3643 -7.49805 -21.002c-12.8311 -23.2061 -38.0088 -40.4834 -77.9756 -40.4834
h-163.45l28.4902 -47.9863h134.96c54.5215 0 98.502 25.6611 119.964 64.4805c7.56543 13.6953 11.7324 29.2334 13.4951 44.9912h-47.9854zM180.653 246.062v124.341l-107.831 -62.1709zM356.085 207.518l107.831 -62.1699v124.341zM131.309 18.335l107.831 -62.1709
v124.341zM239.06 81.3203h86.8535v-62.8818h-86.8535v62.8818zM181.248 245.891l-43.4268 -75.2178l-54.457 31.4414l43.4268 75.2168zM311.74 282.12l54.458 31.4414l43.4258 -75.2178l-54.457 -31.4404z" />
    <glyph glyph-name="uniF2B6" unicode="&#xf2b6;" 
d="M0 448h512v-512h-512v512zM133.292 369.571c20.6113 -12.1045 38.502 -27.7393 51.5 -46.6602c-41.8125 13.6748 -85.375 15.2256 -130.892 5.33789c28.3936 -2.76758 55.8535 -8.34473 81.2881 -17.4326c-37.5654 -4.4873 -74.5 -15.502 -110.569 -34.084
c39.2256 6.52344 78.4961 7.6416 115.67 3.5957c-49.5254 -25.2959 -90.2627 -62.7197 -122.126 -112.267c28.5068 23.4521 59.0273 43.2471 90.6484 58.0342c-24.9902 -43.3037 -38.4961 -91.9727 -41.0498 -145.235c11.335 30.2236 25.7236 59.3418 42.4629 85.1885
c-7.77832 -41.418 -6.46484 -84.6064 3.12305 -128.753c5.07031 52.126 18.5479 101.847 40.502 144.556c0.825195 -32.7236 6.55566 -65.4941 17.9219 -98.6309c-1.28418 65.7471 19.2471 133.567 56.9121 178.201l8.90723 43.5127
c-21.1084 39.5654 -56.1143 60.8223 -104.299 64.6367zM374.746 369.571c-48.1846 -3.81445 -83.1904 -25.0713 -104.299 -64.6367l8.90723 -43.5127c37.665 -44.6338 58.1963 -112.454 56.9121 -178.201c11.3662 33.1367 17.0967 65.9072 17.9219 98.6309
c21.9541 -42.709 35.4326 -92.4297 40.502 -144.556c9.58789 44.1465 10.9014 87.335 3.12305 128.753c16.7393 -25.8467 31.1279 -54.9648 42.4629 -85.1885c-2.55273 53.2627 -16.0596 101.932 -41.0498 145.235c31.6211 -14.7871 62.1416 -34.582 90.6494 -58.0342
c-31.8643 49.5469 -72.6016 86.9707 -122.127 112.267c37.1738 4.0459 76.4443 2.92773 115.67 -3.5957c-36.0693 18.582 -73.0039 29.5967 -110.569 34.084c25.4346 9.08789 52.8945 14.665 81.2881 17.4326c-45.5166 9.8877 -89.0791 8.33691 -130.892 -5.33789
c12.998 18.9209 30.8887 34.5557 51.5 46.6602zM253.77 355.313c-56.7158 -47.9736 -56.7158 -112.948 0 -160.922c56.7158 47.9736 56.7158 112.948 0 160.922zM151.646 -45.6309l219.832 -0.00585938c-102.772 48.4199 -102.955 321.741 -62.2773 261.84l-27.2295 61.4932
l-52.8848 -1.28906l-32.1855 -63.0371c56.2822 85.4365 57.5176 -210.581 -45.2549 -259.001zM200.952 403.338c11.7979 -28.6982 19.4736 -59.7383 21.2715 -91.335l36.7354 -57.9326c1.50293 61.874 -18.1855 111.445 -58.0068 149.268zM288.87 431.396
c-42.7646 -40.6191 -63.9111 -93.8535 -62.2959 -160.303l39.4512 62.2158c1.93066 33.9316 10.1738 67.2656 22.8447 98.0869zM373.334 413.538c-67.3506 -16.2012 -120.119 -57.9307 -157.5 -126.464l76.6641 40.1133c21.8896 33.3799 49.8496 62.4443 80.8359 86.3506z
" />
    <glyph glyph-name="uniF1FD" unicode="&#xf1fd;" 
d="M0 448h512v-512h-512v512zM174.854 433.117c215.692 -193.593 94.084 -508.779 -148.206 -354.155c310.207 -263.973 439.584 153.795 148.206 354.155zM31.9883 318.852c341.663 29.9932 535.612 -317.354 238.952 -298.004
c434.896 -116.531 152.849 365.494 -238.952 298.004z" />
    <glyph glyph-name="uniF403" unicode="&#xf403;" 
d="M0 448h512v-512h-512v512zM85.8682 310.723h0.000976562l152.753 88.3613c9.45605 5.4707 24.8164 5.46973 34.2725 0l152.753 -88.3613c9.45605 -5.46973 9.45703 -14.3545 0 -19.8252l-152.752 -88.3604c-9.45703 -5.4707 -24.8164 -5.46973 -34.2725 0
l-152.753 88.3613c-9.45605 5.46973 -9.45605 14.3555 -0.00195312 19.8242zM220.958 409.303l-152.753 -88.3613c-19.2139 -11.1133 -19.2119 -29.1475 0 -40.2617l152.753 -88.3613c19.2129 -11.1133 50.3877 -11.1143 69.6016 0l152.752 88.3613
c19.2139 11.1143 19.2139 29.1484 0 40.2617l-152.753 88.3613c-19.2119 11.1133 -50.3877 11.1143 -69.6006 0zM77.0371 315.832c-14.334 -8.29102 -14.334 -21.751 0 -30.043l152.753 -88.3613c14.335 -8.29199 37.6025 -8.29199 51.9365 0l152.753 88.3613
c14.335 8.29199 14.335 21.752 0 30.043l-152.753 88.3613c-14.334 8.29199 -37.6016 8.29199 -51.9365 0l-152.753 -88.3613zM282.036 186.925v0l146.932 84.8486c9.45703 5.46094 17.1387 1.02637 17.1387 -9.89551v-157.698
c0 -10.9199 -7.68066 -24.2256 -17.1387 -29.6875l-146.932 -84.8486c-9.45801 -5.46094 -17.1387 -1.02734 -17.1387 9.89453v157.698c0 10.9209 7.68066 24.2266 17.1387 29.6885zM428.968 292.19l-146.932 -84.8477
c-19.2236 -11.1016 -34.8193 -38.1182 -34.8193 -60.3164v-157.698c0 -22.1992 15.5957 -31.2021 34.8193 -20.1016l146.932 84.8486c19.2227 11.1006 34.8203 38.1162 34.8203 60.3145v157.698c0 22.1992 -15.5967 31.2031 -34.8203 20.1025zM282.036 197.134
c-14.3408 -8.28125 -25.9795 -28.4424 -25.9795 -45.002v-157.698c0 -16.5605 11.6387 -23.2793 25.9795 -14.998l146.932 84.8477c14.3408 8.28125 25.9795 28.4424 25.9795 45.002v157.698c0 16.5605 -11.6387 23.2793 -25.9795 14.998l-146.932 -84.8477z
M378.003 143.697v-0.0517578c0 -13.8008 -10.0801 -30.8203 -22.5 -37.9902c-12.4199 -7.1709 -22.5 -1.79102 -22.5 12.0098v0.0517578v0.0517578c0 13.7998 10.0801 30.8193 22.5 37.9902s22.5 1.79004 22.5 -12.0098v-0.0517578zM433.999 237.026v-0.0517578
c0 -13.7998 -10.0801 -30.8193 -22.5 -37.9902s-22.5 -1.79004 -22.5 12.0098v0.0517578v0.0527344c0 13.7998 10.0801 30.8193 22.5 37.9902c12.4199 7.16992 22.5 1.79004 22.5 -12.0098v-0.0527344zM433.999 114.316v-0.0517578
c0 -13.7998 -10.0801 -30.8193 -22.5 -37.9902s-22.5 -1.79004 -22.5 12.0098v0.0517578v0.0517578c0 13.8008 10.0801 30.8203 22.5 37.9912c12.4199 7.16992 22.5 1.79004 22.5 -12.0098v-0.0527344zM321.999 49.6533v-0.0517578
c0 -13.7998 -10.0801 -30.8193 -22.5 -37.9902c-12.4199 -7.16992 -22.5 -1.79004 -22.5 12.0098v0.0527344v0.0517578c0 13.7998 10.0801 30.8193 22.5 37.9902c12.4199 7.16992 22.5 1.79004 22.5 -12.0098v-0.0527344zM321.999 172.364v-0.0527344
c0 -13.7998 -10.0801 -30.8193 -22.5 -37.9902c-12.4199 -7.16992 -22.5 -1.79004 -22.5 12.0098v0.0527344v0.0517578c0 13.7998 10.0801 30.8193 22.5 37.9902c12.4199 7.16992 22.5 1.79004 22.5 -12.0098v-0.0517578zM230.077 186.927v0l-146.932 84.8477
c-9.45703 5.46191 -17.1396 1.02637 -17.1396 -9.89453v-157.698c0 -10.9199 7.68164 -24.2256 17.1396 -29.6875l146.932 -84.8486c9.45703 -5.46094 17.1396 -1.02637 17.1396 9.89551v157.698c0 10.9199 -7.68164 24.2256 -17.1396 29.6875zM83.1455 292.192
l146.932 -84.8486c19.2236 -11.1006 34.8203 -38.1162 34.8203 -60.3145v-157.698c0 -22.1992 -15.5967 -31.2031 -34.8203 -20.1025l-146.932 84.8477c-19.2227 11.1016 -34.8203 38.1172 -34.8203 60.3154v157.698c0 22.1982 15.5967 31.2041 34.8203 20.1025z
M230.077 197.136c14.3408 -8.28125 25.9795 -28.4424 25.9795 -45.002v-157.698c0 -16.5605 -11.6387 -23.2793 -25.9795 -14.998l-146.932 84.8477c-14.3408 8.28125 -25.9795 28.4424 -25.9795 45.002v157.698c0 16.5596 11.6387 23.2793 25.9795 14.998l146.932 -84.8477
zM78.1162 176.026v0.0517578c0 13.8008 10.0801 19.1807 22.5 12.0098c12.4199 -7.16992 22.5 -24.1895 22.5 -37.9902v-0.0517578v-0.0517578c0 -13.7998 -10.0801 -19.1807 -22.5 -12.0098s-22.5 24.1904 -22.5 37.9902v0.0517578zM190.116 111.363v0.0517578
c0 13.8008 10.0801 19.1807 22.5 12.0107c12.4199 -7.1709 22.5 -24.1904 22.5 -37.9912v-0.0517578v-0.0517578c0 -13.7998 -10.0801 -19.1807 -22.5 -12.0098s-22.5 24.1904 -22.5 37.9902v0.0517578zM78.1162 237.026v0.0517578c0 13.8008 10.0801 19.1807 22.5 12.0107
c12.4199 -7.1709 22.5 -24.1904 22.5 -37.9912v-0.0517578v-0.0517578c0 -13.7998 -10.0801 -19.1807 -22.5 -12.0098s-22.5 24.1904 -22.5 37.9902v0.0517578zM78.1162 114.316v0.0517578c0 13.8008 10.0801 19.1807 22.5 12.0098
c12.4199 -7.16992 22.5 -24.1895 22.5 -37.9902v-0.0517578v-0.0517578c0 -13.7998 -10.0801 -19.1807 -22.5 -12.0098s-22.5 24.1904 -22.5 37.9902v0.0517578zM190.116 49.6533v0.0527344c0 13.7998 10.0801 19.1797 22.5 12.0098
c12.4199 -7.1709 22.5 -24.1904 22.5 -37.9902v-0.0527344v-0.0517578c0 -13.7998 -10.0801 -19.1807 -22.5 -12.0098s-22.5 24.1904 -22.5 37.9902v0.0517578zM190.116 172.363v0.0527344c0 13.7998 10.0801 19.1797 22.5 12.0098
c12.4199 -7.1709 22.5 -24.1904 22.5 -37.9902v-0.0527344v-0.0517578c0 -13.7998 -10.0801 -19.1807 -22.5 -12.0098s-22.5 24.1904 -22.5 37.9902v0.0517578zM233.627 358.466c-12.4727 7.40039 -12.4727 19.4121 0 26.8125c12.4717 7.40039 32.7158 7.40039 45.1885 0
c12.4717 -7.40039 12.4717 -19.4121 -0.000976562 -26.8125c-12.4717 -7.40039 -32.7158 -7.40039 -45.1875 0zM352.357 288.018c-12.4717 7.39941 -12.4717 19.4121 0 26.8115c12.4727 7.40039 32.7168 7.40039 45.1885 0c12.4727 -7.39941 12.4727 -19.4121 0 -26.8125
c-12.4717 -7.39941 -32.7158 -7.39941 -45.1885 0.000976562zM233.627 217.568c-12.4727 7.40039 -12.4727 19.4121 0 26.8125c12.4717 7.40039 32.7158 7.40039 45.1885 0c12.4717 -7.40039 12.4717 -19.4121 -0.000976562 -26.8125
c-12.4717 -7.40039 -32.7158 -7.40039 -45.1875 0zM114.455 288.278c-12.4717 7.40039 -12.4717 19.4121 0 26.8125c12.4727 7.40039 32.7168 7.40039 45.1885 0s12.4717 -19.4121 0 -26.8125s-32.7168 -7.40039 -45.1885 0z" />
    <glyph glyph-name="uniF526" unicode="&#xf526;" 
d="M0 448h512v-512h-512v512zM231.44 228.934c-20.1592 -77.4277 -79.1396 -143.603 -154.649 -171.771l-8.25195 -3.07812l2.58496 -8.41895c2.90332 -9.45801 0.847656 -19.5771 -6.43555 -26.8594c-10.5947 -10.5957 -27.583 -10.5957 -38.1787 0
c-10.5947 10.5947 -10.5947 27.583 0 38.1787c5.90234 5.90137 13.8701 8.18555 22.127 7.25098l7.34668 -0.832031l2.49902 6.95898c27.3262 76.1016 94.6123 138.821 172.958 158.57zM241.893 250.324c-89.7354 -16.4883 -165.601 -84.8477 -198.461 -166.859
c-19.4453 -3.12988 -22.2275 -5.35547 -30.1367 -13.2646c-17.875 -17.876 -17.875 -46.7334 0 -64.6084c17.876 -17.876 46.7334 -17.876 64.6084 0c10.7236 10.7236 13.4941 24.5752 12.9902 37.0225c83.04 34.4141 146.103 109.349 161.884 196.861l2.39648 13.2891z
M243.582 241.134c-87.6045 -16.1016 -163.852 -83.9434 -193.894 -167.612c-10.6396 1.19629 -21.626 -1.77539 -29.7861 -9.92871c-14.2314 -14.2314 -14.2314 -37.1621 0 -51.3936s37.1621 -14.2314 51.3936 0c9.88086 9.87988 12.5986 23.7227 8.76172 36.209
c82.2891 30.7051 147.858 105.896 163.524 192.726zM153.426 329.996c28.7441 28.7598 94.0908 18.4941 146.094 -33.4912c52.0117 -52.0117 62.2441 -117.323 33.4873 -146.096c-18.835 -18.835 -78.6465 7.72949 -129.768 58.9785
c-47.7744 47.8945 -70.6699 99.7529 -49.8135 120.608zM140.209 343.209c-36.54 -36.54 4.44531 -101.553 49.7988 -147.02c48.1152 -48.2354 120.747 -94.4619 156.218 -58.9912c40.7041 40.7256 20.9688 118.062 -33.4932 172.523
c-54.5068 54.4883 -131.807 74.2266 -172.523 33.4873zM146.81 336.608c-59.2783 -59.2764 140.166 -245.439 192.803 -192.803c34.7412 34.7422 19.748 106.067 -33.4941 159.309c-53.2422 53.2422 -124.566 68.2363 -159.309 33.4941zM252.938 233.023l-36.2197 -36.1201
c32.8193 -27.6738 62.9229 -72.0645 7.51465 -97.6846c-45.2227 -20.9131 -100.61 -70.3164 -85.1885 -136.077c36.2637 132.399 187.663 69.9268 208.494 213.75zM510.879 439.883h-18.6885v-18.4033l-196.223 -203.525c-11.54 32.5879 -29.791 56.4229 -51.2031 79.3164
l149.396 133.117l-12.4326 13.9531l-164.271 -146.372l7.20508 -6.99805c26.4473 -25.6865 51.7041 -61.9707 57.2637 -93.1436l3.21582 -18.0283l225.738 234.139v25.9453zM501.528 439.878v-22.1611l-210.407 -218.253c-6.13184 34.3857 -32.668 71.708 -59.9443 98.2051
l156.773 139.693zM169.758 447.201v-18.6885h323.346v-136.423h18.6885v155.111h-342.034zM258.12 257.206l13.0088 -13.4189l193.328 187.415l-13.0088 13.4189zM79.4883 33.4434l-0.177734 18.6875c-12.877 -0.12207 -24.833 14.5723 -25.3447 25.5127l-18.668 -0.87207
c0.913086 -19.5381 18.6318 -43.5713 44.1904 -43.3281z" />
    <glyph glyph-name="uniF32F" unicode="&#xf32f;" 
d="M0 448h512v-512h-512v512zM24.4053 421.17l94.166 -167.109l82.8701 -9.92969l-9.92676 82.8711zM280.665 168.754l-216.136 61.5967l113.257 41.2822l41.2822 113.256zM307.844 141.575l-86.5977 303.859l-58.0381 -159.225l-159.225 -58.0371zM294.247 155.172
l-74.0869 259.982l-49.667 -136.227l-136.229 -49.667zM374.789 74.6299l-251.259 71.3418l131.744 48.1729l48.1729 131.743zM401.92 47.499l-96.2354 338.929l-64.9814 -177.713l-177.712 -64.9805zM388.357 61.0635l-83.7979 295.097l-56.5645 -154.738
l-154.737 -56.5645zM486.191 -36.7734l-310.593 88.4238l162.773 59.3965l59.3965 162.789zM513.355 -63.9375l-113.391 398.315l-76.1689 -208.756l-208.735 -76.168zM499.782 -50.3633l-100.91 354.463l-67.7803 -185.771l-185.77 -67.7793zM444.911 1.39453
l-123.979 105.034l18.9453 18.9443zM360.812 88.9971l-123.979 105.034l18.9453 18.9443zM284.89 164.92l-123.978 105.033l18.9443 18.9443z" />
    <glyph glyph-name="uniF249" unicode="&#xf249;" 
d="M0 448h512v-512h-512v512zM235.534 177.934l-13.0664 13.3613c-29.8379 -29.1787 -99.5352 42.2295 -140.893 105.748c-44.9609 69.0938 -9.06152 80.374 49.3223 30.0039c51.0938 -44.0625 72.5068 -75.9141 104.146 -123.718l15.584 10.3145
c-31.582 47.7188 -54.9189 82.1904 -107.524 127.556c-66.5957 57.4551 -134.032 33 -77.1914 -54.3496c35.0029 -53.7598 118.465 -158.944 169.623 -108.916zM256.433 157.33l-13.3613 13.0664c-50.0293 -51.1582 55.1572 -134.62 108.913 -169.621
c87.332 -56.8623 111.81 10.5908 54.3516 77.1904c-45.3652 52.5869 -79.835 75.9229 -127.554 107.522l-10.3184 -15.582c47.8057 -31.6562 79.6592 -53.0713 123.721 -104.147c50.3672 -58.3799 39.0732 -94.2979 -30.0029 -49.3223
c-63.5215 41.3594 -134.928 111.057 -105.749 140.894zM252.016 200.476l-8.43359 16.6777c-38.8916 -19.667 -90.7012 65.9697 -115.477 134.631c-26.8115 74.3398 12.3428 76.1406 58.5957 13.5957c39.9766 -54.0752 53.1758 -89.0059 72.5742 -141.412l17.5264 6.4873
c-19.3652 52.3145 -33.9062 90.3496 -75.0723 146.034c-51.5703 69.7354 -126.081 65.6592 -91.2051 -31.0449c21.5078 -59.6045 77.8877 -177.133 141.491 -144.969zM285.319 181.472l-16.6748 8.43848c-32.1875 -63.6035 85.3467 -119.986 144.946 -141.492
c96.7041 -34.8965 100.801 39.6143 31.0488 91.2031c-55.667 41.166 -93.7031 55.708 -146.018 75.0732l-6.4873 -17.5264c52.4062 -19.3994 87.3369 -32.5986 141.393 -72.5732c62.5635 -46.2715 60.748 -85.4248 -13.5928 -58.5977
c-68.665 24.7773 -154.297 76.584 -134.615 115.475zM285.553 174.214c-27.002 -27.0029 -58.4951 -30.2764 -70.4756 -18.2949c-11.9951 11.9951 -8.70996 43.4736 18.2939 70.4785c27.0029 27.0049 58.4805 30.29 70.4756 18.2949
c11.9805 -11.9814 8.70801 -43.4766 -18.2939 -70.4785zM298.768 160.998c29.3203 29.3213 42.4111 72.791 18.2939 96.9092c-24.1318 24.1328 -67.5869 11.0254 -96.9053 -18.2939s-42.4258 -72.7773 -18.2939 -96.9092c24.1172 -24.1191 67.585 -11.0273 96.9053 18.2939z
M292.156 167.613c28.1631 28.1641 36.3535 65.6357 18.2959 83.6934c-18.0566 18.0586 -55.5273 9.86719 -83.6904 -18.2969c-28.1621 -28.1641 -36.3535 -65.6357 -18.2959 -83.6934s55.5273 -9.86719 83.6904 18.2969zM348.907 245.339
c-12.9141 -12.9141 -33.8604 -12.9072 -46.7812 0.0136719c-12.9199 12.9219 -12.9268 33.8691 -0.0136719 46.7822c12.9297 12.9307 33.875 12.9199 46.7949 0c12.9189 -12.9189 12.9297 -33.8652 0 -46.7959zM362.121 232.123c20.2295 20.2305 20.2119 53.0146 0 73.2275
c-20.2109 20.2119 -52.9941 20.2305 -73.2236 0c-20.2178 -20.2188 -20.1963 -53.002 0.0136719 -73.2129c20.2109 -20.2109 52.9932 -20.2324 73.21 -0.0146484zM355.518 238.741c16.5703 16.5713 16.5703 43.4355 0 60.0068s-43.4355 16.5693 -60.0039 0
c-16.5693 -16.5703 -16.5713 -43.4355 0 -60.0068c16.5703 -16.5713 43.4346 -16.5693 60.0039 0zM308.046 287.131c8.66504 8.66602 8.66504 22.7148 0 31.3809c-8.66504 8.66504 -22.7139 8.66504 -31.3789 0c-8.66406 -8.66504 -8.66504 -22.7148 0 -31.3809
c8.66602 -8.66504 22.7139 -8.66504 31.3789 0zM374.252 220.224c8.66602 8.66504 8.66602 22.7139 0 31.3799c-8.66504 8.66602 -22.7139 8.66504 -31.3779 0c-8.66504 -8.66504 -8.66602 -22.7148 0 -31.3799c8.66504 -8.66602 22.7139 -8.66504 31.3779 0z
M225.61 171.787c-34.8057 -25.3262 -159.547 -127.826 -199.467 -150.084c-14.1143 -46.8018 -2.5498 -79.3867 57.1572 -57.1611c20.8037 40.1006 124.08 163.873 151 197.858z" />
    <glyph glyph-name="uniF2AD" unicode="&#xf2ad;" 
d="M0 448h512v-512h-512v512zM388.328 224.461c-251.073 109.54 -111.558 -150.478 -358.016 -33.7559c25.248 46.6865 49.9326 130.251 60.9766 178.609c266.111 -123.345 125.528 140.255 363.547 31.2842c-41.9229 -38.8105 -80.1084 -109.932 -66.5078 -176.138z
M412.979 210.705c-27.5957 55.0938 14.4365 147.174 64.6934 184.547l12.3223 9.16309l-13.7998 6.7334c-279.587 136.42 -123.164 -150.12 -387.407 -19.8555l-10.8896 5.36816l-2.40234 -11.9004c-8.27539 -41.0029 -37.1699 -145.889 -66.2705 -193.182
l-5.37891 -8.74121l9.20508 -4.53711c283.898 -139.955 128.521 146.157 387.476 19.8213l24.8203 -12.1094zM404.633 206.518c-30.7637 61.4053 15.1396 157.318 67.4697 196.237c-269.284 131.379 -113.373 -154.944 -387.448 -19.8359
c-8.44922 -41.877 -37 -146.701 -67.4697 -196.237c274.075 -135.111 118.164 151.215 387.448 19.8359zM481.564 414.402c-4.37891 -0.977539 -8.94141 -4.42383 -12.084 -11.0977l-179.951 -452.615h23.6094l177.833 447.943
c3.97168 11.6035 -2.11133 17.3984 -9.40723 15.7695zM275.902 317.333l-16.4248 8.91504c-56.7354 -104.525 -61.3369 -166.001 -127.725 -169.161l0.889648 -18.667c82.3545 3.91992 90.7109 82.0986 143.26 178.913z" />
    <glyph glyph-name="uniF4E7" unicode="&#xf4e7;" 
d="M0 448h512v-512h-512v512zM452.231 388.476l-233.003 -157.669l-157.669 -233.003l233.002 157.669zM453.277 -2.30371l-157.669 233.003l-233.002 157.669l157.669 -233.003zM492.834 350.61l-211.064 -159.589l211.058 -159.576l-108.099 159.581zM482.296 5.63867
l13.2158 13.2158l-173.712 173.711l174.515 174.515l-13.2158 13.2148l-187.729 -187.729zM415.529 427.914l-159.584 -108.104l-159.58 108.099l159.575 -211.058zM83.7627 430.604l-13.2158 -13.2158l186.942 -186.941l187.729 187.729l-13.2158 13.2148
l-174.514 -174.514zM99.5303 -42.6934l159.583 108.104l159.581 -108.099l-159.576 211.058zM431.291 -45.3662l13.2158 13.2158l-186.927 186.927l-187.745 -187.744l13.2158 -13.2158l174.529 174.529zM22.2256 34.6104l211.063 159.589l-211.058 159.576l108.1 -159.581z
M32.7578 379.599l-13.2158 -13.2158l173.727 -173.727l-174.529 -174.528l13.2158 -13.2158l187.744 187.744z" />
    <glyph glyph-name="uniF29F" unicode="&#xf29f;" 
d="M0 448h512v-512h-512v512zM21.2822 318.278c-5.77246 -45.124 27.4766 -71.4189 67.6045 -90.0947c142.861 -66.4883 62.5732 -154.314 -21.0059 -68.3115c23.5908 -134.213 277.981 -227.841 378.328 -154.892c81.2803 59.0898 28.4043 317.882 -124.549 357.345
c35.8447 -25.8145 3.96191 -39.6143 -35.8613 -34.916c33.4355 -18.5205 53.915 -43.2158 28.2031 -65.6807c-25.4766 -22.2607 -62.7783 19.6416 -67.7363 56.7734c-7.81641 58.5273 -13.5586 89.4023 -90.5615 86.1191
c99.707 -78.3555 -64.6475 -190.408 -134.422 -86.3428zM348.882 136.19l-36.2178 -36.2178l-279.989 279.989l36.2188 36.2178zM161.781 250.971l-13.2139 -13.2158l-146.406 146.388l13.2139 13.2158zM215.511 295.501l-13.2148 -13.2148l-149.398 149.399
l13.2148 13.2148zM144.954 445.411v-18.6885h-127.827v-161.737h-18.6885v180.426h146.516zM391.931 54.3555l-146.12 56.0205l3.3418 9.33496l64.2744 13.1768l13.168 64.249l9.0791 3.17773zM424.483 21.8594l-77.8857 202.079l-36.1826 -12.6641l-12.8203 -62.5557
l-62.4932 -12.8115l-13.0469 -36.4385zM408.199 38.1064l-67.0713 174.015l-22.626 -7.92383l-12.9854 -63.3916l-63.3818 -12.9902l-8.19531 -22.9014z" />
    <glyph glyph-name="uniF2C0" unicode="&#xf2c0;" 
d="M0 448h512v-512h-512v512zM8.75977 423.339v-131.405l123.229 -71.248l-9.92676 -84.6836l372.604 -58.9863l-237.696 292.594l-68.3291 -50.2256zM8.23633 295.047l32.6377 -187.713l32.4756 187.7zM66.1133 261.976l23.002 -109.95l22.8877 109.943zM16.3877 435.658
h-18.6885v-266.531h18.6885v266.531zM122.199 136.843l23.002 -125.146l22.8887 125.138zM388.779 101.09l23.002 -125.146l22.8877 125.137zM145.192 132.821l30.6416 -179.667l30.4883 179.653zM200.452 141.313l25.3887 -138.131l25.2637 138.119zM240.887 125.106
l23.002 -46.7754l22.8887 46.7715zM352.194 104.882l26.7324 -68.6602l26.5996 68.6543zM297.768 113.73l23.002 -138.667l22.8877 138.658zM412.463 95.9434l33.709 -47.208l33.54 47.2041zM16.3516 374.438l178.142 -102.988l54.3887 39.8096l140.844 -173.894
l-221.154 35.0791l7.85449 68.4434l-160.074 92.6436v40.9062zM-2.33691 406.829v-84.0732l158.799 -91.9062l-8.49805 -74.0576l286.941 -45.5146l-182.702 225.574l-58.9111 -43.1201zM7.00684 390.634v-62.4893l159.437 -92.2764l-8.17676 -71.248l254.049 -40.2988
l-161.772 199.734l-56.6484 -41.4658zM233.525 302.231l21.2676 14.082l33.5908 -33.249l-22.4297 -108.824zM279.871 262.251l7.79883 15.7725l31.459 -35.2988l-17.5879 -61.6738zM181.276 292.676l29.7744 -0.00585938l-14.8496 -81.1943zM203.078 297.484
l40.8496 6.74316l-21.4248 -71.626zM312.59 234.771l38.0537 -23.1084l-15.4219 -50.2051z" />
    <glyph glyph-name="uniF1D8" unicode="&#xf1d8;" 
d="M0 448h512v-512h-512v512zM192.086 340.127l17.1094 7.51855c-42.0479 95.6797 -136.609 105.98 -187.489 25.7939l15.7803 -10.0127c42.5264 67.0215 117.293 61.5908 154.6 -23.2998zM225.471 398.151l37.876 -65.6602l6.26758 0.905273
c71.3281 10.3115 144.873 -22.6816 183.113 -88.9385c50.1035 -86.8486 19.8027 -197.722 -67.0654 -247.911c-86.8262 -50.166 -197.111 -20.6064 -247.229 66.2949c-40.3945 70.0098 -28.9824 155.973 22.3838 212.857l4.55566 5.04492l-35.7783 62.0049zM232.313 423.689
l-128.24 -74.1035l38.374 -66.5029c-54.2109 -65.8408 -63.2773 -154.925 -20.2021 -229.578c55.2617 -95.8232 177.015 -128.462 272.767 -73.1396c95.7109 55.2988 129.214 177.559 73.9023 273.435c-41.5078 71.917 -118.917 106.436 -195.662 98.9229zM228.896 410.914
l-112.057 -64.7432l37.0371 -64.2012c-54.0215 -59.835 -66.0049 -150.198 -23.542 -223.803c52.7031 -91.3574 168.715 -122.461 260.003 -69.7158c91.2881 52.7441 123.186 169.311 70.4795 260.672c-40.1973 69.6729 -117.555 104.362 -192.542 93.5303zM236.56 217.993
l18.4297 -3.10156c11.2734 66.9844 -14.6953 110.98 -85.7939 113.621l-0.694336 -18.6758c59.6123 -2.21387 78.1016 -32.1699 68.0586 -91.8438zM281.604 288.737l26.8477 -46.542c51.127 7.38574 103.868 -16.2686 131.272 -63.7783
c35.9346 -62.293 14.1865 -141.775 -48.0537 -177.738c-62.2402 -35.9619 -141.334 -14.7578 -177.267 47.5342c-28.9502 50.1885 -20.7803 111.807 16.0518 152.602l-25.252 43.7764zM273.252 352.723l-40.9385 70.9668l-128.24 -74.1035l38.374 -66.5029
c-51.5029 -62.5518 -64.0967 -153.504 -20.2012 -229.58c55.2607 -95.8213 177.015 -128.46 272.766 -73.1377c95.7119 55.2988 129.212 177.562 73.9033 273.434c-40.7637 70.6279 -114.681 106.852 -195.663 98.9238zM225.471 398.151l37.876 -65.6602l6.26758 0.905273
c71.3213 10.3105 144.879 -22.6914 183.112 -88.9365c50.1064 -86.8535 19.8027 -197.724 -67.0645 -247.913c-86.8281 -50.166 -197.111 -20.6064 -247.229 66.2969c-40.3926 70.0059 -28.9814 155.971 22.3848 212.855l4.55566 5.04492l-35.7783 62.0049zM325.031 178.086
l-41.9502 -24.2412l13.8652 -24.0371c-20.2246 -22.4004 -24.71 -56.2344 -8.81348 -83.792c19.7314 -34.2061 63.1611 -45.8506 97.3369 -26.1025s46.1182 63.3916 26.3867 97.5957c-15.0479 26.0889 -44.0078 39.0781 -72.082 35.0225zM304.653 140.735l18.4639 2.89062
c-6.8125 43.5166 -47.0312 59.4932 -77.8564 31.6611l12.5244 -13.8711c19.5469 17.6494 41.9268 10.8848 46.8682 -20.6807z" />
    <glyph glyph-name="uniF3B8" unicode="&#xf3b8;" 
d="M0 448h512v-512h-512v512zM182.336 428.081l-153.541 -153.54l226.834 -314.037l226.3 313.501l-153.541 153.542l-72.7588 -72.7588zM181.396 373.916l74.2432 -74.2432l74.2256 74.2432l103.877 -103.877l-178.103 -246.807l-178.104 246.807zM181.395 400.347
l-128.323 -128.343l202.567 -280.708l202.567 280.708l-128.344 128.343l-74.2246 -74.2432zM181.403 387.127l-116.103 -116.106l190.332 -263.756l190.332 263.756l-116.103 116.106l-74.2295 -74.2314zM256.606 325.189l-13.2148 -13.2148l71.6504 -71.6504
l-65.042 -65.043l-71.6328 71.6494l-13.2168 -13.2129l84.8477 -84.8682l91.4736 91.4746zM330.796 349.134l-13.2168 -13.2129l81.416 -81.4346l13.2158 13.2139zM182.819 349.134l-13.2158 -13.2139l109.029 -109.047l13.2158 13.2139z" />
    <glyph glyph-name="uniF4CC" unicode="&#xf4cc;" 
d="M0 448h512v-512h-512v512zM52.3213 148.29l9.09375 16.3271c-46.0527 25.6504 -5.21582 89.335 38.1572 65.1797l0.232422 -0.129883l174.223 -84.3975l8.14746 16.8193l-173.982 84.2812c16.5801 -8.62402 16.7998 -9.33887 0.472656 -0.246094
c-65.0352 36.2178 -123.993 -60.1543 -56.3438 -97.834zM248.942 201.834l8.01953 16.8809c-43.4893 20.6611 -12.6123 87.9072 27.2227 68.9883l0.258789 -0.123047l165.124 -66.3564l6.96777 17.3408l-164.857 66.249
c17.1191 -7.49609 17.4062 -8.24707 0.525391 -0.229492c-63.6094 30.2109 -108.253 -71.8721 -43.2607 -102.75zM349.48 179.912l12.5908 -13.8105c12.8887 11.751 24.6504 13.3721 38.4043 12.4912l1.19531 18.6494c-16.4316 1.05371 -34.8936 -1.55957 -52.1904 -17.3301
zM366.337 164.02c0 37.2588 -29.792 59.3398 -66.5059 49.292c-36.7412 -10.0557 -66.5049 -48.4395 -66.5049 -85.6943c0 -37.2822 29.7676 -59.3457 66.5049 -49.291c36.71 10.0459 66.5059 48.4072 66.5059 85.6934zM347.786 158.942
c0 -26.8857 -21.4844 -54.5459 -47.9551 -61.791c-26.4971 -7.25195 -47.9551 8.65234 -47.9551 35.543c0 26.8633 21.4619 54.54 47.9551 61.791c26.4668 7.24316 47.9551 -8.68262 47.9551 -35.543zM490.229 208.039c0 38.249 -21.5781 60.916 -48.1699 50.6016
c-26.6123 -10.3223 -48.1709 -49.7266 -48.1709 -87.9707c0 -38.2725 21.5615 -60.9229 48.1709 -50.6016c26.5889 10.3135 48.1699 49.6934 48.1699 87.9707zM474.646 201.995c0 -25.8955 -14.5996 -52.5371 -32.5879 -59.5146
c-18.0078 -6.98438 -32.5889 8.33301 -32.5889 34.2334c0 25.874 14.585 52.5312 32.5889 59.5146c17.9854 6.97656 32.5879 -8.36426 32.5879 -34.2334zM352.999 144.508c0 23.2803 -18.5957 37.0635 -41.5361 30.7852s-41.5361 -30.2402 -41.5361 -53.5205
c0 -23.2812 18.5957 -37.0635 41.5361 -30.7852s41.5361 30.2402 41.5361 53.5205zM483.838 188.049c0 23.2803 -13.1211 37.0625 -29.3066 30.7842s-29.3066 -30.2393 -29.3066 -53.5205c0 -23.2803 13.1211 -37.0625 29.3066 -30.7842s29.3066 30.2393 29.3066 53.5205z
" />
    <glyph glyph-name="uniF11B" unicode="&#xf11b;" 
d="M0 448h512v-512h-512v512zM18.8955 184.026c-1.20117 92.1191 61.9727 156.302 135.362 158.863c10.3154 0.350586 21.5 -0.859375 32.9658 -3.16211c23.1436 -4.63965 45.4141 -14.4375 65.7168 -28.5361l5.44824 -3.78418l5.36914 3.89551
c19.9248 14.4561 41.9316 24.6504 64.9209 29.7002c88.7197 19.5254 162.803 -46.9277 164.204 -152.843c1.39746 -106.958 -65.8828 -208.854 -155.734 -228.629c-23.0557 -5.06543 -56.3408 -2.59082 -68.3291 7.25684l-6.40723 5.2627l-5.98828 -5.73535
c-12.1406 -11.6299 -43.5918 -12.9111 -67.4922 -8.11719c-90.7803 18.2285 -168.628 119.415 -170.036 225.828zM0.208008 183.78c1.5127 -114.272 83.8672 -223.589 185.048 -243.905c24.5898 -4.93262 55.624 -4.99512 78.127 8.03906
c25.668 -12.9238 54.0244 -11.8545 77.7832 -6.63477c101.05 22.2393 171.89 133.399 170.403 247.128c-1.51855 114.77 -84.7197 193.337 -186.9 170.849c-23.21 -5.09766 -50.834 -18.4229 -66.5146 -29.0547c-21.0762 13.6699 -43.4658 23.0811 -67.249 27.8486
c-12.5156 2.51465 -25.0566 3.93262 -37.2988 3.5166c-84.5498 -2.9502 -154.715 -76.7783 -153.398 -177.786zM153.93 352.223c-78.9629 -2.74512 -145.639 -71.7637 -144.369 -168.314c1.44824 -110.342 81.5586 -215.602 177.536 -234.873
c24.5615 -4.93359 59.3301 -5.22852 75.7871 10.5391c16.1494 -13.2842 51.8477 -14.542 76.2754 -9.16699c95.4482 21 164.514 127.53 163.063 237.874c-1.4502 110.343 -80.0918 182.853 -175.541 161.854c-24.3457 -5.35547 -47.5234 -16.126 -68.4043 -31.2617
c-21.2734 14.7549 -44.7295 25.1045 -69.209 30.0195c-11.999 2.40918 -23.8604 3.72266 -35.1406 3.33008h0.00195312zM275.548 287.719c4.45508 49.0596 2.47754 88.1338 -7.83691 138.933c-15.1094 0.936523 -44.3174 -2.27441 -53.4766 -24.4521
c21.916 -37.8867 32.8389 -71.8125 32.9639 -113.534zM216.128 113.547c-6.85449 -30.0352 -19.9512 -40.335 -53.1191 -37.4189c1.70898 27.2314 28.7451 46.8672 53.1191 37.4189zM231.2 126.875c-38.5146 23.2637 -91.3662 -7.95605 -86.6465 -59.7471l0.652344 -7.1582
l7.08594 -1.20605c44.5996 -7.58887 77.2354 10.0693 83.3486 58.9531l0.75293 6.02051zM211.806 153.383c-24.6514 -18.4961 -41.3047 -17.8877 -64.7324 5.78711c18.8984 19.666 52.2354 17.1709 64.7324 -5.78711zM231.921 153.815
c-14.3584 42.6309 -74.8789 52.9834 -104.746 10.415l-4.12793 -5.88281l4.62598 -5.49902c29.123 -34.626 65.4492 -42.2588 101.719 -8.89258l4.46582 4.1084zM224.828 198.19c-29.4355 -9.08398 -44.9023 -2.8916 -58.9678 27.3076
c24.4385 12.1279 54.9629 -1.4668 58.9678 -27.3076zM243.905 191.804c0.890625 44.9902 -52.5684 75.1484 -95.0664 45.1797l-5.87598 -4.14355l2.5 -6.74121c15.7324 -42.4297 47.3418 -61.8779 92.7334 -42.7197l5.58887 2.35938zM260.098 126.048l-5.11719 -3.25586
l0.891602 -6c7.2373 -48.7246 40.2812 -65.626 84.7002 -57.0039l7.05664 1.37012l0.486328 7.17188c3.51367 51.877 -50.0566 81.875 -88.0176 57.7178zM275.475 113.075c24.1455 10.0107 51.6377 -9.00195 53.9805 -36.1758
c-33.1006 -3.68457 -46.4346 6.31445 -53.9805 36.1758zM268.736 159.84l-2.96777 -5.29102l3.62598 -4.86523c29.4414 -39.501 66.5439 -38.7461 101.604 -10.1426l5.57129 4.5459l-2.96582 6.5498c-21.4609 47.3867 -82.8496 48.4502 -104.867 9.20312zM288.422 155.688
c16.542 20.2539 49.7568 16.5195 64.6875 -6.32812c-27.4268 -18.9062 -43.9023 -16.4111 -64.6875 6.32812zM269.513 179.74l1.63672 -5.84277l6.00391 -0.881836c48.7402 -7.15625 74.4854 19.582 79.0742 64.6006l0.729492 7.15039l-6.72461 2.53906
c-48.6592 18.3711 -92.8525 -24.2432 -80.7197 -67.5654zM286.381 190.707c-2.5957 26.0098 23.5488 46.834 50.2529 41.2148c-6.04492 -32.751 -19.4785 -42.624 -50.2529 -41.2148zM247.447 119.61l-5.66797 2.16797l-4.28613 -4.2959
c-34.7988 -34.8809 -28.6465 -71.4854 4.76953 -101.98l5.30664 -4.84375l6.04492 3.88574c43.7354 28.1123 35.8398 88.9932 -6.16699 105.066zM246.2 99.5283c22.4268 -13.4141 23.5693 -46.8193 3.16309 -64.8975c-22.7021 24.3594 -22.6338 41.0254 -3.16309 64.8975z
M258.859 269.682c19.4746 -23.875 19.542 -40.5254 -3.16211 -64.8994c-20.4209 18.0938 -19.2656 51.4961 3.16211 64.8994zM257.618 289.762c-42.0127 -16.0527 -49.9219 -76.9375 -6.17188 -105.067l6.04688 -3.8877l5.30859 4.84766
c33.4111 30.5107 39.5664 67.0977 4.7666 101.979l-4.28418 4.29395z" />
    <glyph glyph-name="uniF2BA" unicode="&#xf2ba;" 
d="M0 448h512v-512h-512v512zM102.97 233.806v-18.6885h295.403v18.6885h-295.403zM112.313 260.798h-18.6885v-71.0127h18.6885v71.0127zM407.718 260.798h-18.6885v-71.0127h18.6885v71.0127zM255.045 429.094c55.084 0 103.355 -58.3945 103.355 -134.722
c0 -38.3887 -11.835 -72.9482 -31.1621 -97.2031l-10.0059 -12.5566l15.8604 -2.49707c117.632 -18.5215 117.927 -85.6348 117.889 -223.281h-390.129c0.522461 132.256 9.80273 201.005 119.026 221.575l15.5898 2.93555l-10.127 12.2119
c-20.3076 24.4893 -33.6523 59.6152 -33.6523 98.8154c0 76.3545 48.2314 134.722 103.355 134.722zM255.045 447.781c-69.3115 0 -122.043 -70.7109 -122.043 -153.409c0 -37.9424 13.0312 -74.5771 28.9639 -98.7139
c-112.997 -28.4424 -119.814 -113.62 -119.814 -246.168v-9.34375h427.516v9.34375c0 134.151 1.56934 221.834 -118.996 248.413c17.4941 27.8574 26.417 60.1836 26.417 96.4688c0 82.7256 -52.7422 153.409 -122.043 153.409zM255.036 438.428
c-62.209 0 -112.694 -64.5381 -112.694 -144.061c0 -41.2881 14.0234 -78.498 35.8184 -104.772c-118.085 -22.2324 -126.673 -100.416 -126.673 -240.101h408.846c0 139.827 2.49805 221.647 -125.798 241.847c20.8594 26.1504 33.1973 62.7549 33.1973 103.026
c0 79.5195 -50.4854 144.061 -112.696 144.061zM356.301 294.264c0 -76.752 -48.0566 -135.197 -102.883 -135.197c-54.8223 0 -102.902 58.499 -102.902 135.197c0 76.751 48.0547 135.197 102.902 135.197c54.8008 0 102.883 -58.498 102.883 -135.197zM375 294.264
c0 82.9561 -52.4082 153.877 -121.582 153.877c-69.167 0 -121.602 -70.9736 -121.602 -153.877c0 -82.9561 52.4092 -153.876 121.602 -153.876c69.1484 0 121.582 70.9736 121.582 153.876zM365.655 294.262c0 79.8262 -50.2539 144.537 -112.245 144.537
s-112.246 -64.7109 -112.246 -144.537s50.2549 -144.537 112.246 -144.537s112.245 64.7109 112.245 144.537zM383.38 338.455l1.26367 18.6455l-237.239 16.0791l-1.26367 -18.6455zM306.811 -60.0674l14.1641 12.1914l-205.483 238.718l-14.1641 -12.1924z
M353.351 -55.7783h18.6885v82.9307h-18.6885v-82.9307zM140.056 -55.7783h18.6895v82.9307h-18.6895v-82.9307zM147.247 137.97l45.502 6.60449l-30.7178 -34.2129l-45.5029 -6.60449zM182.462 96.2295l43.4912 14.9229l-23.8467 -39.3125l-43.4902 -14.9229z
M221.175 55.627l41.6416 19.4961l-19.4961 -41.6406l-41.6416 -19.4971zM261.575 12.7998l41.6406 19.4961l-19.4961 -41.6416l-41.6416 -19.4961zM188.824 361.203l20.7559 41.0283l10.334 -44.8037l-20.7549 -41.0283zM291.261 352.534l12.5342 44.2383l18.7041 -42.0039
l-12.5342 -44.2383zM240.066 354.703l18.8447 41.9404l12.3857 -44.2803l-18.8457 -41.9404z" />
    <glyph glyph-name="uniF305" unicode="&#xf305;" 
d="M0 448h512v-512h-512v512zM405.885 358.437c26.2227 65.7334 105.777 32.2227 73.1729 -42.3438c-39.8652 -91.2246 -124.161 -74.7773 -149.539 -108.893c-27.4404 -36.9131 -32.1172 -132.953 13.7178 -164.16c39.5039 -26.8926 40.1377 -52.7109 29.0586 -68.3193
c-14.2344 -20.0547 -54.2871 -30.9863 -95.8086 -4.2168c-36.0713 23.2354 -24.9297 124.467 -65.21 131.443c-41.0029 7.1123 -91.4785 -45.6143 -77.2227 -82.0889c14.6729 -37.5166 0.726562 -56.1279 -17.5723 -62.7686
c-26.6025 -9.65332 -66.7051 5.61328 -70.4307 49.9072c-10.6074 125.81 99.6826 111.61 112.96 202.417c8.89062 60.793 -47.374 82.5332 -107.369 129.493c-42.832 33.5303 -2.70898 92.7227 49.0029 59.5488c65.1797 -41.8213 56.5869 -42.6689 130.041 -76.1055
c73.7275 -33.5576 147.969 -32.1562 175.199 36.0859zM388.527 365.362c-21.0967 -52.8691 -78.5156 -58.585 -150.1 -26.0029c-72.8047 33.1416 -60.666 31.8203 -127.692 74.8271c-68.7432 44.0986 -133.998 -40.377 -70.6123 -89.9961
c66.0078 -51.666 107.018 -66.793 100.396 -112.072c-9.42578 -64.4688 -124.457 -71.8789 -113.091 -206.688c4.82324 -57.335 58.2207 -79.4111 95.4287 -65.9082c29.0439 10.54 46.0957 42.4141 28.6035 87.1396c-7.24414 18.5322 28.6055 61.7314 56.627 56.8711
c20.2012 -3.49902 0.28125 -91.3809 58.2725 -128.737c47.6514 -30.7207 99.5469 -21.3643 121.176 9.1084c19.001 26.7695 10.2627 64.6006 -33.7812 94.583c-32.168 21.9023 -31.917 107.054 -9.24121 137.559c10.2471 13.7734 109.369 15.7666 151.668 112.56
c41.4199 94.7256 -72.0068 146.116 -107.653 56.7568zM397.197 361.902c-24.1621 -60.5586 -89.9834 -64.1182 -162.639 -31.0488c-73.1289 33.2842 -62.7568 33.0449 -128.869 75.4629c-60.2334 38.6436 -112.924 -33.1855 -59.8057 -74.7617
c62.999 -49.3135 111.639 -67.7461 103.885 -120.788c-11.3477 -77.6387 -124.02 -74.2393 -113.038 -204.549c7.45801 -88.5127 143.795 -79.4951 106.035 17.0439c-10.7568 27.5059 32.3984 75.459 66.9199 69.4785c30.2383 -5.23828 14.7021 -99.7891 61.7285 -130.093
c81.9961 -52.8457 168.662 25.7773 77.083 88.124c-39.0049 26.5527 -36.5459 117.138 -11.4766 150.849c17.8076 23.9473 109.509 16.7266 150.602 110.729c37.002 84.6504 -59.4814 127.105 -90.4248 49.5527zM331.487 316.793
c29.4004 29.4004 34.2686 72.2041 10.8701 95.6025c-23.3984 23.3975 -66.2002 18.5312 -95.6016 -10.8711c-29.4023 -29.4014 -34.2686 -72.2031 -10.8711 -95.6016c23.3984 -23.3975 66.2002 -18.5312 95.6025 10.8701zM308.079 233.178
c-10.7607 -36.7832 -76.1709 -43.7109 -88.0625 -61.9512c1.29102 23.7549 -45.8408 63.6777 -34.6318 102.068c10.7627 36.8701 58.335 30.0791 65.9766 -6.20898c28.2773 25.3682 67.3232 2.3457 56.7178 -33.9082z" />
    </font>
</defs>
</svg>
